<?xml version="1.0" encoding="UTF-8" standalone="no"?>
<!-- Created with Inkscape (http://www.inkscape.org/) -->

<svg
   xmlns:dc="http://purl.org/dc/elements/1.1/"
   xmlns:cc="http://creativecommons.org/ns#"
   xmlns:rdf="http://www.w3.org/1999/02/22-rdf-syntax-ns#"
   xmlns:svg="http://www.w3.org/2000/svg"
   xmlns="http://www.w3.org/2000/svg"
   xmlns:sodipodi="http://sodipodi.sourceforge.net/DTD/sodipodi-0.dtd"
   xmlns:inkscape="http://www.inkscape.org/namespaces/inkscape"
   width="209.95039mm"
   height="37.208714mm"
   viewBox="0 0 209.95039 37.208714"
   version="1.1"
   id="svg8"
   inkscape:version="0.92.2 5c3e80d, 2017-08-06"
   sodipodi:docname="crowd.svg">
  <defs
     id="defs2">
    <clipPath
       clipPathUnits="userSpaceOnUse"
       id="clipPath92">
      <rect
         style="fill:#000080;stroke-width:0.36209959"
         id="rect94"
         width="249.897"
         height="40.547642"
         x="-14.967093"
         y="109.74174" />
    </clipPath>
  </defs>
  <sodipodi:namedview
     id="base"
     pagecolor="#ffffff"
     bordercolor="#666666"
     borderopacity="1.0"
     inkscape:pageopacity="0.0"
     inkscape:pageshadow="2"
     inkscape:zoom="0.98994949"
     inkscape:cx="466.25812"
     inkscape:cy="38.55766"
     inkscape:document-units="mm"
     inkscape:current-layer="layer1"
     showgrid="false"
     fit-margin-top="0"
     fit-margin-left="0"
     fit-margin-right="0"
     fit-margin-bottom="0"
     inkscape:window-width="1280"
     inkscape:window-height="756"
     inkscape:window-x="0"
     inkscape:window-y="0"
     inkscape:window-maximized="1" />
  <metadata
     id="metadata5">
    <rdf:RDF>
      <cc:Work
         rdf:about="">
        <dc:format>image/svg+xml</dc:format>
        <dc:type
           rdf:resource="http://purl.org/dc/dcmitype/StillImage" />
        <dc:title></dc:title>
      </cc:Work>
    </rdf:RDF>
  </metadata>
  <g
     inkscape:label="Capa 1"
     inkscape:groupmode="layer"
     id="layer1"
     transform="translate(-0.26695902,-113.08066)">
    <path
       style="fill:#000000;stroke-width:0.24781226"
       d="m 0.26696622,155.13866 7.3e-6,-13.51972 0.82053428,-0.66212 c 1.2228508,-0.98676 2.6603941,-1.70539 3.4114645,-1.70539 0.6100604,0 0.6784779,-0.0998 0.8117954,-1.18375 0.080073,-0.65107 0.3640911,-2.14241 0.6311513,-3.3141 0.595233,-2.61148 0.5911207,-3.37129 -0.030283,-5.59522 -0.7610536,-2.72372 -0.7880567,-2.86593 -0.5442044,-2.86593 0.1262291,0 0.4223263,0.40892 0.6579932,0.90872 0.5355464,1.13577 0.855525,0.87184 1.0600192,-0.87435 0.1649904,-1.40886 0.5927604,-1.60325 0.8530142,-0.38763 0.1484836,0.69356 0.1570046,0.68467 0.1848157,-0.19276 0.02752,-0.86824 0.3804624,-1.42467 0.6992015,-1.10232 0.079428,0.0803 0.1349664,0.48212 0.1234189,0.89287 -0.011547,0.41074 0.082422,0.81145 0.2088218,0.89045 0.1263999,0.079 0.2298178,-0.14333 0.2298178,-0.49409 0,-0.40073 0.1373654,-0.63773 0.3696315,-0.63773 0.2467906,0 0.3696316,0.24958 0.3696316,0.75101 0,0.41306 0.126541,0.95594 0.281203,1.20639 0.422768,0.68463 0.04689,2.16777 -0.7951971,3.13772 -0.5262027,0.6061 -0.8122087,1.2848 -1.0029892,2.38015 -0.2504813,1.43811 -0.2347835,1.55502 0.2554182,1.90226 0.6600698,0.46756 0.6594567,0.92191 -0.00246,1.82735 -0.4621709,0.6322 -0.5118705,0.96543 -0.4166515,2.79354 0.095352,1.83066 0.2179941,2.27431 1.0388174,3.75789 0.511886,0.9252 1.0209872,1.68218 1.1313362,1.68218 0.110349,0 0.340072,-0.58876 0.510497,-1.30836 0.170424,-0.7196 0.458708,-1.66923 0.64063,-2.11029 0.450046,-1.09112 0.416882,-3.98001 -0.06294,-5.48252 -0.365408,-1.14424 -0.362638,-1.33885 0.03854,-2.70764 0.743181,-2.53566 0.297927,-6.55745 -1.013913,-9.15824 -0.195728,-0.38804 -0.355869,-0.80858 -0.355869,-0.93454 0,-0.47526 0.717053,-0.20278 1.18839,0.45158 l 0.490234,0.68061 0.42088,-0.99212 c 1.114397,-2.62691 1.362121,-3.11041 1.593608,-3.11041 0.137293,0 0.249623,0.16821 0.249623,0.37381 0,0.2056 0.138612,0.34578 0.308027,0.31152 0.331674,-0.0671 0.349006,0.44968 0.05851,1.74448 -0.247789,1.10442 0.142957,1.02419 0.87764,-0.18021 0.332191,-0.54458 0.745369,-0.99316 0.918171,-0.99684 0.172803,-0.004 0.380721,-0.34314 0.462039,-0.75434 0.175454,-0.8872 0.51169,-0.96479 0.810015,-0.18691 0.203907,0.53169 0.235571,0.51233 0.611418,-0.37382 0.443486,-1.04561 0.873977,-1.22456 0.899281,-0.37381 l 0.01668,0.56072 0.2674,-0.56072 c 0.458586,-0.96164 0.763605,-0.64697 0.593007,0.61177 l -0.158909,1.1725 0.864678,-0.84757 0.864678,-0.84757 v 0.63329 c 0,0.34831 -0.223347,0.83771 -0.496326,1.08755 -0.291108,0.26643 -0.440477,0.6322 -0.361254,0.88464 0.241895,0.77077 -0.620989,2.15163 -1.632908,2.61311 -0.813691,0.37108 -1.038508,0.66933 -1.660063,2.2023 -0.395403,0.97521 -0.857997,2.3899 -1.027986,3.14376 -0.169989,0.75387 -0.522905,1.95677 -0.784257,2.67311 -0.50536,1.38515 -0.479264,1.50867 0.585377,2.77057 0.607906,0.72054 0.766785,0.77743 2.016615,0.72209 1.169048,-0.0518 1.45272,0.0304 2.050734,0.59416 0.664422,0.62634 1.310068,0.7104 1.310068,0.17057 0,-0.14031 -0.141708,-0.20012 -0.314906,-0.1329 -0.210132,0.0815 -0.305454,-0.0961 -0.286498,-0.53406 0.01661,-0.38381 0.172125,-0.65627 0.374571,-0.65627 0.190391,0 0.540035,-0.4164 0.776987,-0.92533 0.236952,-0.50893 0.764549,-1.17485 1.172438,-1.47983 0.833433,-0.62316 0.98979,-1.59297 0.334904,-2.07726 -0.545619,-0.40348 -0.605594,-2.54296 -0.08274,-2.95161 1.077319,-0.84199 1.429017,-2.15934 1.890856,-7.08254 0.114675,-1.22245 0.569965,-1.88572 0.569965,-0.83032 0,0.26292 0.07901,0.68346 0.17558,0.93454 0.121934,0.31702 0.253697,-5e-4 0.431236,-1.03877 0.179198,-1.04807 0.366204,-1.49527 0.625289,-1.49527 0.203297,0 0.440401,-0.0985 0.526897,-0.21883 0.3656,-0.50874 0.700178,0.16287 0.551036,1.10612 -0.183418,1.16002 0.07137,1.29638 0.437516,0.23417 0.160637,-0.46602 0.428792,-0.74764 0.711903,-0.74764 0.249804,0 0.533107,-0.12913 0.629561,-0.28696 0.12151,-0.19884 0.277329,-0.14595 0.507383,0.17223 0.322333,0.44581 0.341806,0.44567 0.667557,-0.005 0.184547,-0.25524 0.285407,-0.65795 0.224134,-0.89491 -0.08627,-0.33362 0.03501,-0.42241 0.537472,-0.39349 0.663414,0.0382 0.762128,0.22245 0.954546,1.78182 0.0755,0.61182 0.09965,0.56655 0.132949,-0.24921 0.02237,-0.54827 0.149885,-1.16506 0.283342,-1.37066 0.215687,-0.33228 0.269609,-0.33228 0.485296,0 0.133457,0.2056 0.244347,0.61834 0.246421,0.91721 0.0026,0.3723 0.178348,0.56846 0.55822,0.62303 0.462035,0.0664 0.583207,0.28732 0.727001,1.32569 0.566598,4.09154 0.613433,4.23551 2.399564,7.37624 0.966704,1.69985 1.990366,3.73547 2.274805,4.5236 0.284441,0.78813 0.566406,1.43297 0.626589,1.43297 0.06018,0 1.099787,-0.9252 2.310226,-2.056 1.776688,-1.65978 2.359833,-2.39217 3.026032,-3.80047 1.266377,-2.67703 1.275665,-2.74932 0.400321,-3.11601 -0.747185,-0.31298 -1.722884,-1.33569 -1.722884,-1.80587 0,-0.13435 0.277224,-0.0606 0.616053,0.16396 0.728728,0.48289 0.79884,0.20222 0.157081,-0.62881 -0.252434,-0.32688 -0.698246,-1.07095 -0.990694,-1.65348 -0.427208,-0.85097 -0.460829,-1.05915 -0.171053,-1.05915 0.198366,0 0.545598,0.25233 0.771623,0.56073 l 0.410956,0.56072 -0.135162,-0.76321 c -0.07434,-0.41976 -0.169813,-0.91712 -0.212166,-1.10524 -0.1377,-0.61161 1.235064,-0.54531 1.586207,0.0766 0.169483,0.30018 0.474488,0.54579 0.677786,0.54579 0.346561,0 1.011361,1.06377 2.219346,3.55126 0.282891,0.58253 0.632067,1.05915 0.77595,1.05915 0.15159,0 0.200443,0.24644 0.116167,0.58603 -0.195468,0.78763 0.07548,1.00161 0.62797,0.49596 0.646436,-0.59165 0.762766,-0.30727 0.316335,0.77329 -0.212452,0.51422 -0.342249,1.1202 -0.28844,1.34662 0.07199,0.3029 0.173068,0.22663 0.382583,-0.28866 0.375942,-0.92464 0.875558,-0.61345 0.671625,0.41832 -0.08484,0.42923 -0.147899,1.10585 -0.140132,1.50359 0.02208,1.13024 -0.459827,2.31317 -1.12075,2.75113 -0.423055,0.28033 -0.603603,0.62829 -0.603603,1.16326 0,0.41981 -0.188534,1.47884 -0.418962,2.35341 -0.230431,0.87457 -0.350818,1.65904 -0.267527,1.74328 0.256499,0.2594 1.136545,-0.35515 1.312793,-0.91674 0.109603,-0.34924 0.22785,-0.43178 0.344683,-0.2406 0.105791,0.17311 0.296356,-0.10901 0.470354,-0.69634 0.314342,-1.06107 1.421161,-2.17411 2.412059,-2.42563 1.312724,-0.3332 2.629056,0.0744 3.584038,1.10978 0.679584,0.7368 0.943827,0.89264 1.047999,0.6181 0.298014,-0.7854 0.106853,-1.99311 -0.479725,-3.03081 -0.604027,-1.06856 -0.854206,-2.7091 -0.366662,-2.40437 0.135531,0.0847 0.246421,0.42777 0.246421,0.76234 0,0.33458 0.100507,0.60832 0.223351,0.60832 0.122843,0 0.185197,-0.19625 0.138565,-0.43612 -0.317139,-1.6313 -0.313933,-2.3052 0.01097,-2.3052 0.188042,0 0.449977,0.19532 0.582079,0.43404 0.530571,0.95882 0.578971,-0.0385 0.07263,-1.49656 -0.296851,-0.85481 -0.538609,-1.69438 -0.537237,-1.86572 0.005,-0.61849 0.528152,-0.29295 0.873809,0.54369 0.564994,1.36754 0.812893,1.24274 0.472561,-0.2379 -0.210091,-0.91401 -0.230475,-1.41535 -0.06183,-1.52076 0.138368,-0.0865 0.350073,-0.003 0.470449,0.1862 0.177549,0.2786 0.25787,0.2824 0.425439,0.0201 0.288224,-0.45112 0.607363,-0.0119 1.172823,1.61408 0.516769,1.48598 0.952619,1.50115 0.705947,0.0246 -0.273136,-1.63497 0.451623,-1.03358 0.784952,0.65135 0.155577,0.78642 0.341931,1.48958 0.414115,1.56259 0.208499,0.21085 2.375505,-2.90066 2.523498,-3.62339 0.0736,-0.35944 0.347944,-1.13014 0.609651,-1.71267 0.412035,-0.91715 0.583628,-1.06311 1.279898,-1.08866 0.442239,-0.0162 0.914961,-0.004 1.050492,0.0277 0.135532,0.0315 0.650502,0.06 1.144379,0.0635 0.855288,0.006 0.905427,0.0535 1.055189,1.00067 0.20334,1.28601 -0.246024,1.98855 -1.772764,2.77153 -1.477656,0.75782 -1.827943,1.15911 -2.747816,3.14789 -1.227799,2.65453 -1.216565,2.96128 0.145882,3.9835 0.639403,0.47974 1.796714,1.46419 2.571804,2.18768 l 1.409252,1.31543 0.175089,-0.8062 c 0.157456,-0.72502 0.07893,-0.88849 -0.779752,-1.62324 -0.525163,-0.44937 -1.028118,-0.81871 -1.117674,-0.82075 -0.250517,-0.006 -1.268984,-2.25231 -1.098991,-2.42423 0.08245,-0.0834 0.372367,0.052 0.64426,0.30085 0.726784,0.66518 0.60536,0.27303 -0.368121,-1.18888 -1.376906,-2.06774 -1.06837,-2.74437 0.367606,-0.80617 0.455859,0.6153 0.868646,1.07846 0.917305,1.02925 0.04866,-0.0492 -0.137375,-0.66893 -0.413406,-1.37716 -0.563111,-1.4448 -0.610491,-1.76766 -0.259405,-1.76766 0.133358,0 0.571583,0.64484 0.973831,1.43297 0.821457,1.60949 0.930651,1.62511 0.382803,0.0548 -0.204744,-0.58688 -0.308049,-1.13199 -0.229566,-1.21137 0.214697,-0.21712 1.055032,0.99916 1.227576,1.77678 0.264609,1.19253 0.678623,1.11567 0.48591,-0.0902 -0.30365,-1.90004 0.459727,-0.61649 0.981701,1.65063 0.252459,1.09653 0.472059,2.0176 0.488,2.04682 0.01594,0.0292 0.608468,-0.10147 1.316733,-0.29043 0.708263,-0.18895 1.368442,-0.325 1.467065,-0.30233 0.09862,0.0227 0.213731,-0.37933 0.255797,-0.89333 0.04206,-0.514 0.168811,-0.93454 0.281662,-0.93454 0.256955,0 0.50433,0.63137 0.50433,1.2872 0,0.28843 0.129915,0.45491 0.308026,0.39471 0.215465,-0.0728 0.320318,-0.85907 0.348932,-2.61655 0.03449,-2.11811 0.115108,-2.5842 0.513647,-2.96951 0.83997,-0.8121 1.550109,-1.13265 1.885544,-0.85111 0.212442,0.17831 0.390696,0.17285 0.579146,-0.0177 0.353922,-0.35793 1.324949,0.67836 2.044816,2.18224 0.484562,1.01231 0.973254,1.43725 0.973254,0.84628 0,-0.13707 0.11089,-0.24921 0.246421,-0.24921 0.135532,0 0.246421,0.23091 0.246421,0.51313 0,0.28222 0.11089,0.44382 0.246421,0.35911 0.135532,-0.0847 0.248119,-0.51188 0.250194,-0.94925 0.0049,-1.03431 0.393891,-1.69223 0.708551,-1.19842 0.173007,0.27151 0.25479,0.23193 0.386236,-0.18691 0.09172,-0.29224 0.331039,-0.53135 0.53183,-0.53135 0.445167,0 1.313798,-1.85397 1.32125,-2.82001 0.003,-0.38595 0.135556,-0.94667 0.294624,-1.24606 0.159067,-0.29939 0.355972,-0.87239 0.437569,-1.27334 0.174678,-0.85833 0.751744,-1.17553 0.751744,-0.41322 0,0.80735 0.427782,0.61193 0.772816,-0.35305 0.374003,-1.046 0.69592,-1.12821 0.731924,-0.18691 l 0.02621,0.68533 0.267775,-0.68533 c 0.147279,-0.37693 0.360741,-0.68533 0.474363,-0.68533 0.386046,0 0.503404,0.77702 0.214285,1.41876 -0.439846,0.97629 -0.06456,1.04384 0.679181,0.12225 0.759442,-0.94104 1.010439,-0.83794 1.051409,0.43191 0.02467,0.76455 0.08143,0.66652 0.394614,-0.68153 0.268391,-1.15527 0.457571,-1.53892 0.710448,-1.44079 0.18956,0.0736 0.344652,0.0251 0.344652,-0.10763 0,-0.13277 0.166334,-0.24139 0.369632,-0.24139 0.275328,0 0.372093,0.302 0.379276,1.18375 l 0.0096,1.18375 0.366201,-0.85349 c 0.585674,-1.36502 0.913537,-0.63252 0.476467,1.0645 -0.404729,1.57146 -0.465913,2.35404 -0.115017,1.47117 0.122575,-0.3084 0.389289,-0.56072 0.5927,-0.56072 0.218149,0 0.314795,0.14506 0.235637,0.35368 -0.15441,0.40694 0.600365,1.69577 0.887857,1.51607 0.105291,-0.0658 0.448055,-0.85478 0.761697,-1.75328 0.627997,-1.79902 1.107495,-2.42305 1.356855,-1.76585 0.0836,0.22025 0.24356,0.3432 0.35553,0.27322 0.40799,-0.25501 0.45328,0.32061 0.11474,1.45822 -0.42584,1.43096 -0.10478,1.50273 0.80288,0.17948 0.47648,-0.69466 0.80372,-0.94606 1.11144,-0.85388 0.36341,0.10886 0.33259,-0.0237 -0.18481,-0.79474 -0.34152,-0.50896 -0.61745,-1.16206 -0.61316,-1.45133 0.007,-0.49547 0.0417,-0.48702 0.59263,0.14575 0.32167,0.36943 0.75917,0.92339 0.97223,1.23102 0.61529,0.88839 0.68683,0.41616 0.168,-1.10891 -0.26312,-0.77344 -0.37917,-1.46829 -0.25788,-1.5441 0.2728,-0.1705 0.89097,0.76469 1.11526,1.68719 0.27694,1.13905 0.6746,1.11669 0.5663,-0.0318 -0.13449,-1.42627 0.44199,-1.36262 0.80334,0.0887 0.15315,0.6151 0.38104,1.05424 0.50641,0.97587 0.12538,-0.0784 0.16054,-0.35733 0.0781,-0.61993 -0.0985,-0.31383 -0.0327,-0.47745 0.19201,-0.47745 0.23942,0 0.43252,0.61598 0.64451,2.05599 0.16647,1.1308 0.35301,2.39461 0.41453,2.80846 0.0615,0.41385 0.56919,1.53531 1.12814,2.49211 0.55894,0.95681 1.45608,2.52467 1.99363,3.48414 0.53756,0.95946 0.896,1.52019 0.79654,1.24605 -0.0995,-0.27413 -0.22703,-0.83486 -0.28348,-1.24605 -0.0979,-0.71313 -0.0849,-0.72531 0.28127,-0.26389 0.21116,0.26607 0.38392,0.57447 0.38392,0.68533 0,0.11087 0.0832,0.20166 0.18481,0.20175 0.10165,9e-5 0.18482,-0.42046 0.18482,-0.93454 0,-0.76299 0.0817,-0.92069 0.44463,-0.85837 0.57807,0.0993 1.41412,0.82616 1.25315,1.08956 -0.20078,0.32856 0.31152,0.23559 0.58834,-0.10675 0.13853,-0.17134 0.29072,-1.20606 0.3382,-2.2994 l 0.0863,-1.98787 -1.17993,-0.64931 c -1.15334,-0.63467 -2.09045,-1.62063 -1.80995,-1.90431 0.0774,-0.0782 0.42765,0.0479 0.77841,0.28036 l 0.63776,0.42261 -0.39704,-0.70036 c -0.21837,-0.38521 -0.66641,-1.14895 -0.99564,-1.69721 -0.32923,-0.54827 -0.60043,-1.08096 -0.60266,-1.18376 -0.008,-0.37487 0.54525,-0.17293 1.02436,0.37382 0.44819,0.51146 0.47721,0.51694 0.33027,0.0623 -0.0886,-0.27413 -0.21894,-0.78813 -0.28964,-1.14222 -0.11599,-0.58094 -0.0545,-0.6438 0.62974,-0.6438 0.51888,0 0.80355,0.14425 0.90167,0.45689 0.0789,0.25129 0.36224,0.45689 0.62973,0.45689 0.33112,0 0.64254,0.33804 0.97573,1.05915 0.26916,0.58253 0.42002,0.83486 0.33524,0.56072 -0.3106,-1.00434 -0.41253,-2.36751 -0.17703,-2.36751 0.13192,0 0.37136,0.44388 0.53208,0.98639 0.40391,1.3634 0.77148,1.50145 0.77148,0.28976 0,-0.75682 0.17603,-1.19109 0.73265,-1.80741 0.40296,-0.44618 0.78426,-0.75904 0.84734,-0.69525 0.0631,0.0638 0.21999,0.67426 0.34868,1.35658 l 0.234,1.2406 0.0276,-1.03877 c 0.0512,-1.93124 0.59193,-2.4768 0.88466,-0.89262 0.095,0.514 0.26798,1.05127 0.38446,1.19395 0.11648,0.14267 0.33072,0.79614 0.47609,1.45216 0.2377,1.07266 0.20048,1.33659 -0.36953,2.62115 l -0.63385,1.42839 0.62558,1.10683 c 0.47611,0.84238 0.62629,0.97673 0.62854,0.56233 0.002,-0.29948 -0.11204,-0.85043 -0.2526,-1.22434 -0.28633,-0.76162 0.10144,-1.50333 0.47035,-0.89966 0.10684,0.17483 0.37389,0.24816 0.59345,0.16295 0.2946,-0.11433 0.50248,0.0951 0.79341,0.79927 l 0.39422,0.95419 1.0565,-2.24068 c 0.58107,-1.23237 1.71707,-3.25513 2.52445,-4.49503 1.51991,-2.33415 1.72502,-2.7719 2.40493,-5.13267 0.5798,-2.01318 0.66027,-2.05266 3.90278,-1.91489 0.67865,0.0288 0.76405,0.15878 1.03601,1.57636 0.1971,1.02743 -0.53825,2.08305 -2.00929,2.88442 -1.44214,0.78563 -2.22992,2.14028 -3.53981,6.08699 -0.50044,1.50784 -0.9836,2.92228 -1.07369,3.14319 -0.11364,0.27869 0.19864,0.75454 1.02,1.55424 1.01419,0.98745 1.22415,1.09789 1.4655,0.77085 0.53349,-0.72288 0.61437,-2.47893 0.19919,-4.325 -0.22117,-0.9834 -0.33407,-1.96733 -0.25089,-2.18653 0.19877,-0.52388 0.40126,-0.29139 0.62646,0.71929 0.18847,0.84582 0.31917,0.71422 0.60617,-0.61038 0.0817,-0.37693 0.24989,-0.68533 0.37384,-0.68533 0.12395,0 0.26986,0.3084 0.32425,0.68533 l 0.0989,0.68533 0.19469,-0.80993 c 0.18876,-0.78523 0.46764,-1.02139 0.71948,-0.60928 0.0675,0.11037 0.0284,0.64306 -0.0869,1.18376 -0.16746,0.78581 -0.15206,0.89124 0.0767,0.52538 0.65461,-1.04678 0.87118,-1.27669 1.04092,-1.10503 0.0984,0.0995 -0.0126,0.68821 -0.24674,1.30819 -0.23411,0.61997 -0.37392,1.26731 -0.31068,1.43852 0.11715,0.31716 0.1401,0.2773 0.52643,-0.91413 0.28574,-0.88119 0.69758,-0.0316 0.51487,1.06215 -0.12292,0.73574 -0.38921,1.17655 -0.99133,1.64102 -0.93089,0.71806 -1.47026,2.05406 -1.23992,3.07123 0.20692,0.91374 1.2159,1.6479 1.99349,1.45053 0.65647,-0.16663 0.81204,-0.82438 0.24685,-1.04372 -0.19474,-0.0756 -0.29376,-0.29635 -0.22005,-0.4906 0.0737,-0.19426 0.0113,-0.3532 -0.13877,-0.3532 -0.47335,0 -0.29668,-0.77157 0.35639,-1.55649 0.34605,-0.41591 0.57174,-0.90757 0.50153,-1.09259 -0.39139,-1.0315 3.82013,-3.05733 4.3962,-2.11467 0.0741,0.12127 0.46432,0.2694 0.86713,0.32919 0.80166,0.11899 0.79787,0.12693 1.11929,-2.34462 0.1069,-0.82194 0.0453,-1.34291 -0.20637,-1.74448 -0.68083,-1.08647 -0.73776,-2.12046 -0.16808,-3.05267 0.33363,-0.54594 0.65513,-0.80846 0.88219,-0.72034 0.22071,0.0857 0.35724,-0.0144 0.35724,-0.26184 0,-0.47149 0.64187,-0.54086 0.82318,-0.089 0.0948,0.2363 0.18538,0.22365 0.37513,-0.0524 0.2153,-0.31323 0.31998,-0.29998 0.75173,0.0952 0.27588,0.25249 0.56881,0.67327 0.65097,0.93505 0.10473,0.33373 0.29071,0.4306 0.62234,0.32415 0.28804,-0.0925 0.47297,-0.0342 0.47297,0.14903 0,0.16545 0.17453,0.4299 0.38785,0.58765 0.33077,0.2446 0.34134,0.39005 0.0718,0.98831 -0.298,0.66145 -0.26739,0.74209 0.53623,1.41273 1.14215,0.95316 6.40585,4.54894 6.49238,4.43514 0.0377,-0.0496 0.58604,-1.29794 1.21855,-2.77415 0.88241,-2.05943 1.15034,-2.9873 1.15139,-3.98738 0.002,-1.87072 0.38783,-3.08077 1.04985,-3.29233 0.30278,-0.0968 1.07724,-0.21664 1.72101,-0.26642 0.8716,-0.0674 1.1705,-0.003 1.1705,0.25174 0,0.18823 0.11535,0.38112 0.25633,0.42864 0.47292,0.15943 -0.2497,2.67148 -1.02555,3.56513 -0.81478,0.93849 -1.55412,2.91513 -1.94119,5.1898 -0.14436,0.84836 -0.44577,2.35658 -0.66979,3.35161 l -0.40732,1.80915 0.84873,0.80757 c 0.4668,0.44417 1.23582,1.3368 1.70894,1.98363 0.56981,0.77901 1.04548,1.17865 1.40899,1.18375 0.30754,0.004 0.7262,0.28158 0.95242,0.63074 0.22201,0.34266 0.54931,0.62303 0.72734,0.62303 0.17803,0 0.49794,0.17622 0.71092,0.39162 0.65483,0.66225 0.45892,-0.12551 -0.43827,-1.76229 -0.45079,-0.82239 -1.19797,-1.75516 -1.6604,-2.0728 -0.46243,-0.31765 -0.92814,-0.81551 -1.03492,-1.10636 -0.27619,-0.75231 0.0332,-1.99763 0.45561,-1.83371 0.25729,0.0999 0.30314,-0.0446 0.19222,-0.60544 -0.18644,-0.94275 0.26548,-0.97311 0.76265,-0.0512 0.3622,0.67161 0.36662,0.66163 0.2208,-0.49843 -0.18104,-1.44011 0.18508,-1.5643 0.73475,-0.24921 l 0.39062,0.93455 -0.14412,-0.96656 c -0.19321,-1.29578 0.38658,-1.12707 0.80267,0.23356 0.26674,0.87223 0.30326,0.90547 0.32621,0.29688 0.0279,-0.73927 0.37749,-0.91847 0.60779,-0.31152 0.17827,0.46982 0.65015,0.49062 0.65015,0.0287 0,-0.74775 1.22729,-1.21978 2.79716,-1.07582 1.32549,0.12156 1.58718,0.24137 2.38926,1.09388 0.66799,0.70998 0.94596,1.26231 1.07573,2.1375 0.0962,0.64907 0.25136,1.18021 0.34471,1.18029 0.0933,9e-5 0.19558,0.45291 0.2272,1.00627 0.0409,0.71529 -0.0522,1.04869 -0.32219,1.15345 -0.21987,0.0853 -0.31834,0.30898 -0.23395,0.53138 0.0801,0.21122 0.0196,0.46285 -0.13449,0.55918 -0.20914,0.13071 -0.20857,0.31051 0.002,0.70883 0.27357,0.51696 0.30122,0.5199 0.88172,0.094 0.32962,-0.24183 0.665,-0.63595 0.74531,-0.87582 0.0803,-0.23986 0.27715,-0.43924 0.43743,-0.44305 0.46915,-0.0112 1.94611,-1.25357 3.31254,-2.78647 l 1.26822,-1.42275 -0.34966,-1.06937 c -0.19231,-0.58815 -0.52481,-2.11606 -0.73889,-3.39535 -0.49891,-2.98137 -1.15875,-4.74679 -2.1174,-5.66515 -0.94847,-0.9086 -1.28165,-1.74382 -1.09564,-2.74655 0.29639,-1.59778 3.0712,-2.03868 3.82816,-0.60827 0.15002,0.28349 0.37161,1.38228 0.49241,2.44174 0.15719,1.37861 0.49414,2.52856 1.18512,4.04459 0.53102,1.16506 1.16665,2.7351 1.41252,3.48896 0.43033,1.31947 0.45696,1.34708 0.71327,0.7391 0.14643,-0.34735 0.49402,-0.96415 0.77241,-1.37066 0.27839,-0.40651 0.71107,-1.21572 0.9615,-1.79825 0.25044,-0.58253 0.6167,-1.05915 0.81391,-1.05915 0.23443,0 0.30658,0.15099 0.20839,0.43612 -0.13823,0.40142 -0.12562,0.40314 0.15845,0.0216 0.16975,-0.22799 0.43424,-0.6205 0.58776,-0.87224 0.49754,-0.81586 0.64958,-0.14298 0.24143,1.06845 -0.45982,1.36479 -0.45593,1.33977 -0.20858,1.33977 0.10382,0 0.55879,-0.57161 1.01104,-1.27025 0.99902,-1.54331 1.59485,-1.35865 0.78652,0.24376 -0.59625,1.18198 -0.44525,1.2979 0.49898,0.38303 1.18931,-1.15234 1.00922,-0.19343 -0.2653,1.41265 -0.67921,0.85589 -1.17103,1.62079 -1.09294,1.69978 0.0781,0.079 0.25008,-0.0517 0.38219,-0.29044 0.1321,-0.23873 0.39524,-0.43405 0.58475,-0.43405 0.27771,0 0.29331,0.1487 0.0804,0.76642 -0.26865,0.77937 -1.0753,1.28849 -2.54403,1.6057 -0.42529,0.0918 -1.18325,0.64135 -1.78467,1.29384 -1.03386,1.12165 -3.7598,5.9158 -3.7598,6.61242 0,0.57942 0.76441,1.06898 2.21779,1.42034 1.67675,0.40537 1.918,0.59458 2.11548,1.65915 0.0864,0.46596 0.27019,0.84719 0.40833,0.84719 0.13814,0 0.7819,0.38561 1.43056,0.8569 1.33014,0.96644 1.56482,0.81653 1.21147,-0.7739 -0.11916,-0.53637 -0.18593,-2.1022 -0.14838,-3.47963 0.0577,-2.115 0.15776,-2.65085 0.64375,-3.4461 0.55197,-0.90322 2.07929,-1.86156 2.98694,-1.8742 0.21617,-0.003 0.59598,-0.23225 0.84401,-0.50943 0.24804,-0.27718 1.5959,-1.29212 2.99525,-2.25543 1.39934,-0.96331 2.5387,-1.82995 2.5319,-1.92585 -0.007,-0.0959 -0.64579,-0.47732 -1.41997,-0.84757 -1.04947,-0.50191 -1.47975,-0.86649 -1.69117,-1.43297 -0.34199,-0.91628 0.0726,-1.05473 0.78251,-0.26135 0.41143,0.45977 1.10889,0.68519 1.10889,0.35838 0,-0.077 -0.27001,-0.72185 -0.60003,-1.43296 -0.82285,-1.77303 -1.05192,-2.76287 -0.60524,-2.61538 0.18854,0.0623 0.50025,0.44029 0.69268,0.84006 0.43726,0.9084 0.65483,0.38134 0.28522,-0.69093 -0.1907,-0.55325 -0.19429,-0.86743 -0.012,-1.05177 0.18228,-0.18434 0.31313,-0.17577 0.43807,0.0287 0.098,0.16034 0.38859,0.27155 0.64579,0.24713 0.34931,-0.0332 0.60148,0.28824 0.99655,1.27011 0.56817,1.41209 0.97273,1.48847 0.7219,0.13629 -0.11911,-0.6421 -0.0697,-0.82776 0.22039,-0.82776 0.25974,0 0.42358,0.36513 0.53653,1.19567 0.15682,1.15311 0.49557,2.03084 0.68993,1.78765 0.0516,-0.0646 0.34952,-0.54713 0.66204,-1.07238 0.44076,-0.74076 0.68242,-0.92479 1.07726,-0.82036 0.27997,0.074 0.6521,0.0145 0.82696,-0.13223 0.23455,-0.19686 0.35793,-0.16144 0.47043,0.13503 0.0839,0.22104 0.28231,0.40189 0.44099,0.40189 0.56507,0 1.24523,1.10958 1.22211,1.99369 -0.0217,0.83057 -0.92378,2.74132 -1.29416,2.74132 -0.0962,0 -0.39023,0.16101 -0.65332,0.3578 -0.4598,0.34394 -0.43577,0.40187 0.62026,1.49527 1.13757,1.17782 1.83121,1.39236 2.70909,0.83791 0.37898,-0.23936 0.74048,-0.21471 1.79868,0.12263 1.22879,0.39173 2.60624,1.51324 2.45515,1.99896 -0.0843,0.2709 0.74148,1.66693 0.98598,1.66693 0.10631,0 0.19329,0.28698 0.19329,0.63774 0,0.36169 -0.10666,0.57107 -0.24642,0.48371 -0.13553,-0.0847 -0.24642,0.0288 -0.24642,0.25231 0,0.22348 -0.16633,0.57454 -0.36963,0.78015 -0.68803,0.69582 -0.46351,1.12624 0.49284,0.9448 l 0.86248,-0.16364 v 15.97727 15.97726 c -69.98346,0 -139.966927,0 -209.95039098,0 z M 51.768938,142.9896 c 0.656273,-0.6637 0.621831,-0.99685 -0.103056,-0.99685 -1.251626,0 -1.734081,0.53449 -1.079765,1.19622 0.407605,0.41222 0.612174,0.37774 1.182821,-0.19937 z m 124.196152,-0.74763 c 0,-0.13707 -0.11089,-0.24922 -0.24642,-0.24922 -0.13553,0 -0.24642,0.11215 -0.24642,0.24922 0,0.13706 0.11089,0.24921 0.24642,0.24921 0.13553,0 0.24642,-0.11215 0.24642,-0.24921 z m -83.187086,-3.32726 c -0.08516,-0.22443 -0.259486,-0.34264 -0.387395,-0.26269 -0.138662,0.0867 -0.114056,0.28977 0.06094,0.50301 0.360484,0.43928 0.535453,0.31047 0.32646,-0.24032 z m 26.769526,-1.14032 c -0.29658,-0.42123 -0.64258,-0.76586 -0.76888,-0.76586 -0.44534,0 -0.22272,1.23564 0.32481,1.80278 0.50252,0.52051 0.57453,0.53472 0.76888,0.15162 0.14963,-0.29495 0.0515,-0.65411 -0.32481,-1.18854 z m -97.600469,0.34956 c -0.17144,-0.20891 -0.362456,-0.32851 -0.42448,-0.26579 -0.170893,0.17283 0.176325,0.64564 0.474138,0.64564 0.1634,0 0.144706,-0.143 -0.04966,-0.37985 z m 10.599678,-1.24003 c 0.0034,-0.54826 0.270959,-1.57195 0.594579,-2.27485 0.500422,-1.08691 0.754036,-1.34197 1.696209,-1.70586 l 1.10781,-0.42787 -0.230832,-0.91085 c -0.574183,-2.26572 -1.773021,-5.30544 -1.959505,-4.96844 -0.106851,0.19309 -0.418527,1.91399 -0.692613,3.8242 -0.274087,1.91022 -0.612815,4.0772 -0.752733,4.8155 -0.332697,1.75558 -0.337394,3.53435 -0.008,3.01883 0.131382,-0.2056 0.241656,-0.82239 0.245056,-1.37066 z m 10.765798,1.07473 c -0.07866,-0.19881 -0.137054,-0.13976 -0.148877,0.15056 -0.01069,0.26271 0.04754,0.4099 0.129425,0.32709 0.08188,-0.0828 0.09064,-0.29776 0.01944,-0.47765 z m 17.943607,0.29593 c 0.08376,-0.13706 0.475465,-0.24921 0.870448,-0.24921 h 0.718149 l -0.794298,-1.47973 c -0.436865,-0.81386 -0.869864,-1.40262 -0.962222,-1.30837 -0.308522,0.31486 -0.532836,3.28653 -0.248079,3.28653 0.145038,0 0.332239,-0.11215 0.416002,-0.24922 z m 91.873596,-0.34611 0.69784,-0.57741 -0.93645,-0.55878 c -0.5948,-0.35491 -0.96981,-0.45759 -1.02788,-0.28142 -0.0503,0.15254 -0.25772,0.44554 -0.46098,0.65111 -0.32848,0.3322 -0.30549,0.42776 0.20681,0.8595 0.71505,0.6026 0.67716,0.60491 1.52066,-0.093 z m -71.236945,-1.17452 c 0.884595,-1.1293 1.323263,-1.9933 1.885051,-3.71281 0.268178,-0.82084 0.2408,-0.91263 -0.464545,-1.55757 -0.412235,-0.37693 -0.886381,-0.68244 -1.053659,-0.67891 -0.167275,0.004 -0.658166,0.53623 -1.090866,1.18376 -1.033305,1.54632 -1.216112,2.04956 -0.744527,2.04956 0.37373,0 0.668782,0.50031 0.668782,1.13402 0,0.19008 -0.138949,0.29169 -0.308775,0.22578 -0.224773,-0.0872 -0.303204,0.23693 -0.288293,1.19158 0.01126,0.72127 0.03933,1.41794 0.06235,1.54816 0.04681,0.26465 0.02864,0.28349 1.334478,-1.38357 z m -37.289458,0.61737 c 1.59974,-1.8607 2.236719,-2.90872 2.226923,-3.66394 l -0.01025,-0.79085 -0.884811,0.99685 c -1.184994,1.33503 -2.298152,3.10898 -2.298152,3.66236 0,0.62644 0.307972,0.56128 0.96629,-0.20442 z m 156.170553,-0.36186 c 0.17911,-0.18113 0.1917,-0.59947 0.0388,-1.28782 -0.12458,-0.56075 -0.16981,-1.16897 -0.10051,-1.3516 0.0697,-0.18371 -0.0357,-0.33206 -0.23591,-0.33206 -0.21776,0 -0.36189,-0.2383 -0.36189,-0.59833 0,-0.5583 -2.0618,-3.64723 -2.42349,-3.63082 -0.71991,0.0327 -4.89622,4.90101 -4.52575,5.27568 0.26782,0.27084 3.12296,0.9715 3.91837,0.96157 0.29823,-0.004 0.60972,0.10366 0.6922,0.23863 0.0825,0.13497 0.40707,0.24539 0.7213,0.24539 0.31424,0 0.70938,0.16822 0.8781,0.37382 0.35888,0.43732 1.02133,0.4873 1.39881,0.10554 z m -87.65573,-0.93948 c -0.16161,-0.0545 -0.3902,0.0548 -0.50798,0.24284 -0.38951,0.62186 -0.2299,0.80047 0.29006,0.32458 0.33061,-0.30259 0.40775,-0.50343 0.21792,-0.56742 z m 11.60055,0.70758 c 0.7197,-0.13804 1.35222,-0.29514 1.4056,-0.34912 0.0534,-0.054 -0.54806,-1.06227 -1.33652,-2.24062 -1.25635,-1.87762 -1.57065,-2.18942 -2.54246,-2.52232 -1.22385,-0.41924 -2.02258,-0.99047 -2.40333,-1.71881 -0.20546,-0.39303 -0.27851,-0.23838 -0.41201,0.87224 -0.0892,0.74248 -0.21911,1.74824 -0.28859,2.23502 -0.12323,0.86333 -0.0761,0.9229 1.92004,2.42818 1.1255,0.84873 2.11439,1.54388 2.19754,1.54477 0.0832,0.001 0.74003,-0.11131 1.45973,-0.24934 z m 28.32923,-1.24431 c 0,-0.13706 -0.11088,-0.24921 -0.24642,-0.24921 -0.13553,0 -0.24642,0.11215 -0.24642,0.24921 0,0.13707 0.11089,0.24921 0.24642,0.24921 0.13554,0 0.24642,-0.11214 0.24642,-0.24921 z M 29.930603,129.71853 c 0.626437,-2.29617 1.138975,-4.35359 1.138975,-4.57206 0,-0.21846 -0.179688,-1.02231 -0.399305,-1.78632 l -0.399308,-1.38912 -0.322925,0.94996 c -0.177608,0.52248 -0.774146,1.41493 -1.325639,1.98323 -0.979986,1.00984 -1.00263,1.07259 -0.998944,2.76831 0.0026,1.20494 0.07619,1.62083 0.240796,1.36123 0.130364,-0.2056 0.176637,-0.57007 0.102831,-0.80994 -0.0738,-0.23987 -0.01794,-0.43612 0.124142,-0.43612 0.543028,0 0.550497,1.19384 0.01412,2.25713 -0.61964,1.22835 -0.556584,2.70704 0.149065,3.4956 0.236539,0.26434 0.454181,0.45189 0.483645,0.41678 0.02947,-0.0351 0.566111,-1.94251 1.192545,-4.23868 z m 77.976587,3.30261 c 0.40502,0 0.40762,0.0116 -0.81211,-3.61357 -0.82013,-2.43747 -1.26078,-3.38558 -1.77946,-3.82866 -0.37917,-0.3239 -1.01025,-0.87179 -1.4024,-1.21753 l -0.71301,-0.62862 -0.42716,0.57271 c -0.23493,0.31499 -0.73001,1.3569 -1.10018,2.31536 -0.66324,1.71729 -0.6686,1.77655 -0.36825,4.07148 0.16763,1.28086 0.37441,2.32883 0.45951,2.32883 0.0851,0 0.53061,-0.10902 0.99002,-0.24227 1.06087,-0.3077 2.63817,0.034 3.31462,0.71815 0.50506,0.51077 0.50774,0.51082 1.02633,0.0181 0.28597,-0.2717 0.65141,-0.494 0.81209,-0.494 z m -15.953323,-1.18376 c 0.01008,-0.92519 0.210601,-2.8597 0.445615,-4.29889 0.456239,-2.79394 0.433511,-4.02742 -0.0626,-3.39767 -0.152963,0.19417 -0.721673,0.6309 -1.263799,0.97051 -0.832258,0.52137 -1.091825,0.90379 -1.667585,2.45686 -0.811361,2.1886 -0.832637,2.45786 -0.180573,2.28541 0.593313,-0.15691 0.626698,0.12204 0.104791,0.8756 -0.213428,0.30817 -0.35204,0.66833 -0.308026,0.80037 0.08662,0.25986 2.425703,1.95372 2.72905,1.97626 0.101649,0.008 0.193059,-0.74325 0.20313,-1.66845 z m 6.305086,0.97728 c 0.500696,0.40373 0.616248,-0.22169 0.434446,-2.35137 -0.160864,-1.8844 -1.101889,-6.01027 -1.451449,-6.36379 -0.08139,-0.0823 -0.528103,0.23724 -0.992692,0.71012 -0.717406,0.73021 -0.866483,1.08513 -0.989206,2.35505 -0.07948,0.8224 -0.07089,2.56865 0.01907,3.88055 l 0.16357,2.38529 1.265085,-0.42327 c 0.800297,-0.26776 1.370197,-0.33851 1.551176,-0.19258 z m 46.164257,-1.62804 c 0.12872,-0.9646 0.5542,-1.25804 0.70158,-0.48385 0.1311,0.68871 0.5165,1.00008 0.75493,0.60991 0.36176,-0.59196 -0.2584,-2.28832 -1.16046,-3.17432 -1.06978,-1.05072 -1.30973,-1.06914 -1.02894,-0.079 0.18069,0.63719 0.15465,0.74536 -0.15088,0.62679 -0.30004,-0.11644 -0.34006,0.0142 -0.21346,0.69664 0.0937,0.50497 0.0487,0.90688 -0.11274,1.00779 -0.44797,0.28 -0.324,1.58271 0.16268,1.70958 0.74198,0.19343 0.92034,0.0379 1.04729,-0.91354 z m -64.808705,-1.0167 c 0,-0.33458 -0.110889,-0.67763 -0.246421,-0.76235 -0.143767,-0.0899 -0.246421,0.16356 -0.246421,0.60832 0,0.41929 0.11089,0.76235 0.246421,0.76235 0.135532,0 0.246421,-0.27375 0.246421,-0.60832 z m 80.994405,-0.18605 c -0.0787,-0.1988 -0.13706,-0.13975 -0.14888,0.15057 -0.0107,0.26271 0.0475,0.4099 0.12942,0.32709 0.0819,-0.0828 0.0906,-0.29776 0.0195,-0.47766 z m -12.19368,-0.50153 c -0.22999,-0.2326 -0.2957,-0.16614 -0.2957,0.29905 0,0.4652 0.0657,0.53165 0.2957,0.29905 0.22999,-0.23259 0.22999,-0.36551 0,-0.5981 z M 24.340559,129.1008 c -0.06248,-0.24247 -0.117706,-0.10443 -0.122728,0.30677 -0.005,0.4112 0.0461,0.60959 0.113597,0.44087 0.0675,-0.16873 0.07161,-0.50516 0.0091,-0.74764 z m 97.165501,0.52902 c 0,-0.4999 -1.04687,-2.83897 -1.27061,-2.83897 -0.0905,0 -0.23757,0.43685 -0.32677,0.97078 -0.1347,0.8063 -0.0653,1.0763 0.40958,1.59356 0.66593,0.72537 1.1878,0.84603 1.1878,0.27463 z m 26.4694,-3.60991 c -0.23384,-0.26131 -0.51886,-0.47511 -0.63339,-0.47511 -0.30076,0 -0.25651,0.93725 0.0534,1.13095 0.14389,0.0899 0.38827,0.46103 0.54305,0.82464 l 0.28142,0.66113 0.0903,-0.83325 c 0.0589,-0.54338 -0.0576,-0.99853 -0.33481,-1.30836 z M 122.52183,125.875 c -0.29049,-0.5052 -0.36064,-0.3435 -0.12285,0.28319 0.0845,0.22272 0.20556,0.35245 0.26901,0.28829 0.0634,-0.0642 -0.002,-0.32133 -0.14616,-0.57148 z M 16.0379,123.52169 c 0,-0.13707 -0.110889,-0.1799 -0.246421,-0.0952 -0.135531,0.0847 -0.246421,0.26617 -0.246421,0.40323 0,0.13707 0.11089,0.17991 0.246421,0.0952 0.135532,-0.0847 0.246421,-0.26616 0.246421,-0.40323 z m 86.48687,0.1624 c 0.16494,-0.20099 0.25664,-0.49667 0.20377,-0.65706 -0.0529,-0.16039 -0.28768,0.004 -0.52181,0.36544 -0.44732,0.69043 -0.19733,0.91965 0.31804,0.29162 z m -72.634144,-2.53837 c -0.118149,-0.62506 -0.545995,-0.81507 -0.545995,-0.24249 0,0.18847 -0.07219,0.72116 -0.160415,1.18376 l -0.160412,0.84109 0.488714,-0.5986 c 0.294589,-0.36083 0.44478,-0.83104 0.378108,-1.18376 z m 63.277032,1.02001 c 0,-0.21368 -0.112699,-0.31808 -0.25044,-0.23199 -0.137742,0.0861 -0.186645,0.26093 -0.108667,0.38853 0.211239,0.34566 0.359107,0.28121 0.359107,-0.15654 z m -62.442576,-1.6445 c -0.27099,-0.39127 -0.394767,-0.45102 -0.394767,-0.19056 0,0.3999 0.510306,1.04294 0.686364,0.86489 0.05674,-0.0574 -0.07448,-0.36083 -0.291597,-0.67433 z"
       id="path75"
       inkscape:connector-curvature="0"
       sodipodi:nodetypes="cccsccsscscscssssscssccscscccccsccsssccccccccccscccsccscccsccsccssscccsccscccscccccccccccsscscscscccscccccsssccccccccscccccccsccsscscscccccccsscccccccccccccccccccccsscccscccccssccccccsssccccsccssscccscccccsscccccsccccccccccccccsccccssccccccssscccccccccccccccscscsssssccccccccccccccccccccccccccccccsccccccccscccccccsccccccccscccccsccccccccscscccccccsccccccccccscccscccccccccccccccsccsscccscsccsssccccscsccssccscccccccccccsscscccccssccccccscscccccsscsccccccccsccsssssccccccscccccscccsccccsccccccccccscccscccccccccccccsscccccccccsccccssccccscccccccccccccccccssssscssccccccscccccccccccscsscccccscccccccccsscsccccsccccccccccscsssccccccssccccccssccscsccccccccccscscscccccsccccsccscscc"
       clip-path="url(#clipPath92)" />
  </g>
</svg>
