<?xml version="1.0" encoding="UTF-8" standalone="no"?>
<svg
   xmlns:dc="http://purl.org/dc/elements/1.1/"
   xmlns:cc="http://creativecommons.org/ns#"
   xmlns:rdf="http://www.w3.org/1999/02/22-rdf-syntax-ns#"
   xmlns:svg="http://www.w3.org/2000/svg"
   xmlns="http://www.w3.org/2000/svg"
   xmlns:sodipodi="http://sodipodi.sourceforge.net/DTD/sodipodi-0.dtd"
   xmlns:inkscape="http://www.inkscape.org/namespaces/inkscape"
   height="12.346333"
   width="89.905998"
   id="svg8"
   xml:space="preserve"
   enable-background="new 0 0 100 100"
   viewBox="0 0 89.905998 12.346333"
   y="0px"
   x="0px"
   version="1.1"
   sodipodi:docname="truss.svg"
   inkscape:version="0.92.2 5c3e80d, 2017-08-06"><sodipodi:namedview
     pagecolor="#ffffff"
     bordercolor="#666666"
     borderopacity="1"
     objecttolerance="10"
     gridtolerance="10"
     guidetolerance="10"
     inkscape:pageopacity="0"
     inkscape:pageshadow="2"
     inkscape:window-width="1045"
     inkscape:window-height="671"
     id="namedview10"
     showgrid="false"
     inkscape:zoom="4.5936868"
     inkscape:cx="44.952999"
     inkscape:cy="6.1731663"
     inkscape:window-x="0"
     inkscape:window-y="0"
     inkscape:window-maximized="0"
     inkscape:current-layer="svg8" /><metadata
     id="metadata14"><rdf:RDF><cc:Work
         rdf:about=""><dc:format>image/svg+xml</dc:format><dc:type
           rdf:resource="http://purl.org/dc/dcmitype/StillImage" /><dc:title></dc:title></cc:Work></rdf:RDF></metadata><defs
     id="defs12" /><path
     style="fill:#000000"
     id="path2"
     d="m 0,1.211 v 3.374 0.484 c 0,0.083 0.067,0.15 0.15,0.15 h 89.606 c 0.083,0 0.15,-0.067 0.15,-0.15 V 4.585 1.211 c 0,-0.083 -0.067,-0.15 -0.15,-0.15 H 89.451 V 0.605 0.15 C 89.451,0.067 89.384,0 89.301,0 H 0.607 C 0.524,0 0.457,0.067 0.457,0.15 V 0.605 1.061 H 0.151 C 0.068,1.06 0,1.128 0,1.211 Z M 88.695,0.754 v 3.35 L 81.476,0.754 Z M 87.65,4.434 H 72.91 L 80.281,1.012 Z M 71.804,0.754 h 7.219 l -7.219,3.35 z m -0.756,0 v 3.35 l -7.221,-3.35 z m -1.051,3.68 H 55.2 L 62.571,1.012 Z M 54.156,0.754 h 7.219 l -7.219,3.35 z m -0.756,0 V 3.97 L 49.335,0.754 Z M 48.689,1.22 52.726,4.434 H 48.689 Z M 40.853,0.754 h 7.078 v 3.68 h -7.078 z m -0.758,3.68 h -3.02 l 3.02,-3.123 z m -3.527,-3.68 h 3.021 l -3.021,3.123 z m -0.756,0 v 3.35 l -7.219,-3.35 z m -1.106,3.68 H 19.967 L 27.336,1.012 Z M 18.921,0.754 h 7.219 l -7.219,3.35 z m -0.816,0 v 3.35 l -7.192,-3.35 z m -1.047,3.68 H 2.319 L 9.689,1.012 Z M 1.212,0.754 H 8.46 L 1.212,4.105 Z" /><path
     id="path3749"
     d="m 10.710752,11.341689 c -0.250417,-0.643973 -0.335771,-0.97002 -0.2685,-1.025638 0.05424,-0.04485 0.123134,-0.06847 0.153097,-0.0525 0.12532,0.0668 0.825338,2.009292 0.741079,2.05643 -0.173216,0.0969 -0.260872,-0.04015 -0.625676,-0.978292 z M 11.275649,10.589324 10.662338,9.863775 11.42648,8.489707 12.190622,7.11564 13.194445,7.115481 c 0.552105,-9e-5 1.010357,0.01799 1.018341,0.04018 0.0079,0.02219 -0.511608,0.967087 -1.154654,2.099776 L 11.88896,11.314872 Z M 5.618806,7.466294 c 0.0063,-0.05515 0.340466,-0.672101 0.74268,-1.371002 L 7.092776,4.824558 9.426334,5.86979 11.759889,6.915031 10.991812,8.296172 10.223736,9.677314 7.915577,8.621939 C 6.107166,7.795066 5.609885,7.544851 5.618804,7.466293 Z M 8.044457,7.877101 C 8.078807,7.768372 7.983277,7.701618 7.34948,7.391477 6.640579,7.044583 6.320115,6.973792 6.338131,7.168075 c 0.0039,0.04198 0.380452,0.247051 0.836795,0.455708 0.75136,0.34355 0.833473,0.367469 0.869533,0.253316 z M 8.4332,7.127423 C 8.47776,7.047293 8.34923,6.960943 7.746766,6.666244 6.922666,6.263129 6.78793,6.2274 6.767588,6.40655 6.747348,6.584839 8.349358,7.278188 8.4332,7.127423 Z M 8.885116,6.365412 C 8.919636,6.256083 8.821966,6.189149 8.149401,5.861211 7.591122,5.589 7.345754,5.49881 7.273508,5.539221 7.079193,5.647927 7.193628,5.736265 8.015591,6.112099 8.766955,6.455651 8.849065,6.479569 8.885116,6.365412 Z m 3.60712,0.260902 c 0.01196,-0.10531 0.276751,-0.207942 1.123315,-0.435401 0.913825,-0.245532 1.116172,-0.27502 1.156264,-0.168502 0.04018,0.106765 -0.140719,0.183553 -1.045208,0.44365 -0.601593,0.172996 -1.128952,0.310826 -1.171911,0.306289 -0.04296,-0.0045 -0.07106,-0.07025 -0.06246,-0.146036 z"
     style="fill:#000000;stroke-width:0.07707403" /><path
     style="fill:#000000;stroke-width:0.06682257"
     d="m 23.256357,9.824092 c 0.03492,-0.618528 0.08447,-0.921978 0.155884,-0.954558 0.05758,-0.02627 0.118932,-0.03065 0.136341,-0.0097 0.0728,0.08745 -0.0751,1.940211 -0.156577,1.961435 -0.167511,0.04363 -0.186516,-0.09606 -0.135648,-0.997131 z M 23.956853,9.302477 23.7414,8.527957 24.814898,7.512592 25.888393,6.497228 26.660756,6.732423 c 0.424802,0.129355 0.770975,0.252505 0.769277,0.273666 -0.0017,0.02114 -0.73538,0.720769 -1.630407,1.554687 l -1.627319,1.516216 z M 20.708346,5.261386 c 0.02429,-0.04648 0.499462,-0.504455 1.055901,-1.017732 L 22.775952,3.310419 24.201928,4.766133 25.627897,6.221855 24.548873,7.242446 23.469849,8.263038 22.067,6.804462 C 20.967887,5.661684 20.673721,5.327586 20.708345,5.261385 Z M 22.42938,6.187171 C 22.49424,6.100701 22.44431,6.020275 22.066306,5.602079 21.643495,5.134324 21.421958,4.997656 21.367159,5.170774 c -0.0118,0.03742 0.205399,0.303958 0.482755,0.592332 0.456661,0.474803 0.511383,0.514846 0.579467,0.424064 z m 0.564019,-0.560576 c 0.0626,-0.05922 -0.0058,-0.16441 -0.365139,-0.561839 -0.491574,-0.543635 -0.582607,-0.606282 -0.66157,-0.455312 -0.07857,0.150247 0.908924,1.128558 1.026709,1.017151 z M 23.61038,5.070107 c 0.06519,-0.08695 0.01371,-0.168033 -0.38785,-0.610791 -0.33332,-0.36752 -0.490226,-0.503448 -0.56009,-0.485255 -0.187917,0.04894 -0.131092,0.152569 0.368479,0.671987 0.456663,0.474804 0.511383,0.514847 0.579461,0.424059 z m 2.682991,1.072449 c 0.04642,-0.08874 0.28641,-0.115888 1.018109,-0.115158 0.789837,7.89e-4 0.955936,0.02259 0.949138,0.124589 -0.0068,0.102231 -0.173132,0.126577 -0.96093,0.140639 -0.523982,0.0094 -0.978423,0.0056 -1.009871,-0.0085 -0.03147,-0.01397 -0.02984,-0.07773 0.0035,-0.141596 z"
     id="path3751" /><path
     id="path3753"
     d="m 63.712073,10.390152 c 0.06932,-0.59206 0.07036,-0.888503 0.0033,-0.932519 -0.05411,-0.03549 -0.115765,-0.05095 -0.137021,-0.03433 -0.08886,0.06937 -0.25249,1.850831 -0.17322,1.885952 0.16297,0.0722 0.205977,-0.05655 0.306975,-0.91906 z M 63.088051,9.7671 63.438459,9.073524 62.518767,7.9142 61.599078,6.754877 60.773683,6.835117 c -0.453969,0.04413 -0.826917,0.09688 -0.828777,0.117229 -0.0019,0.02032 0.625744,0.818045 1.394678,1.77266 l 1.398059,1.735667 z m 3.988851,-3.226967 c -0.01682,-0.04849 -0.42247,-0.56973 -0.901393,-1.158319 l -0.870767,-1.070168 -1.697028,1.115272 -1.697024,1.11528 0.924427,1.165291 0.924426,1.165293 1.673992,-1.122247 C 66.745087,6.871266 67.100897,6.609198 67.076904,6.540132 Z M 65.16961,7.099254 c -0.05132,-0.09383 0.01311,-0.160769 0.468436,-0.487 0.509303,-0.364889 0.757782,-0.453428 0.784172,-0.279415 0.0056,0.03761 -0.260422,0.249905 -0.591385,0.471784 -0.544926,0.365319 -0.607368,0.393139 -0.661224,0.294631 z M 64.690995,6.464483 c -0.05363,-0.06762 0.03377,-0.154592 0.466595,-0.464603 0.5921,-0.42405 0.695304,-0.466576 0.750023,-0.309075 0.05444,0.156744 -1.115709,0.900882 -1.216618,0.773678 z M 64.157821,5.823816 c -0.05156,-0.09434 0.01454,-0.161621 0.497992,-0.506763 0.401297,-0.286492 0.583917,-0.386249 0.651889,-0.35614 0.182824,0.081 0.107466,0.168629 -0.488664,0.568276 -0.544927,0.36532 -0.607367,0.393141 -0.661217,0.294627 z m -2.910506,0.520571 c -0.03218,-0.09258 -0.27165,-0.162545 -1.015946,-0.296799 -0.803434,-0.14492 -0.97606,-0.154916 -0.986435,-0.05708 -0.01045,0.09804 0.154628,0.151772 0.953472,0.310379 0.531319,0.105539 0.994152,0.185753 1.028518,0.178244 0.03437,-0.0074 0.04352,-0.06809 0.02043,-0.13471 z"
     style="fill:#000000;stroke-width:0.06662829" /><path
     style="fill:#000000;stroke-width:0.07315101"
     d="M 78.92992,10.631256 C 79.138704,10.013143 79.206967,9.69598 79.144635,9.63356 79.094365,9.58323 79.031428,9.55262 79.004759,9.56557 c -0.111463,0.05402 -0.691247,1.924121 -0.613781,1.979793 0.15926,0.114456 0.234764,-0.0136 0.538935,-0.914062 z M 78.398593,9.821923 78.933263,9.159186 78.204782,7.708278 77.476303,6.257372 76.568703,6.155146 c -0.49918,-0.05623 -0.913009,-0.08475 -0.919622,-0.06339 -0.0067,0.02132 0.489021,1.018501 1.101411,2.215867 l 1.113431,2.17703 z m 5.029133,-2.545901 c -0.0071,-0.05576 -0.326214,-0.7063 -0.708991,-1.445662 L 82.022783,4.486063 79.941518,5.293368 77.860256,6.100684 78.592489,7.55906 79.32472,9.017438 81.382741,8.197414 c 1.612434,-0.642482 2.0552,-0.841976 2.044987,-0.921393 z M 81.24584,7.439935 C 81.21179,7.327772 81.29638,7.270789 81.860911,7.025279 82.492365,6.750681 82.780172,6.712519 82.769199,6.90485 82.766699,6.9464 82.431977,7.113062 82.025088,7.275189 81.355151,7.542127 81.281564,7.557682 81.245839,7.439934 Z M 80.873855,6.651198 c -0.04248,-0.08462 0.0714,-0.157824 0.608015,-0.391095 0.734072,-0.319069 0.854913,-0.341077 0.878207,-0.15997 0.02316,0.180233 -1.406292,0.710261 -1.486222,0.551065 z M 80.444414,5.843712 c -0.03419,-0.112764 0.05228,-0.169731 0.651395,-0.429079 0.497313,-0.215276 0.716694,-0.280461 0.78312,-0.23273 0.178663,0.128393 0.07761,0.205045 -0.655275,0.497067 -0.669939,0.266938 -0.743523,0.282494 -0.77924,0.164742 z M 77.190217,5.737684 C 77.176507,5.631224 76.934305,5.501731 76.162672,5.188337 75.329731,4.850042 75.145976,4.799993 75.112639,4.902378 c -0.03346,0.102588 0.132251,0.197747 0.957148,0.549648 0.548636,0.234106 1.029209,0.425485 1.067942,0.425278 0.03872,-9e-5 0.06231,-0.06299 0.05252,-0.139577 z"
     id="path3755" /></svg>