<?xml version="1.0" standalone="no"?>
<!DOCTYPE svg PUBLIC "-//W3C//DTD SVG 20010904//EN"
 "http://www.w3.org/TR/2001/REC-SVG-20010904/DTD/svg10.dtd">
<svg version="1.0" xmlns="http://www.w3.org/2000/svg"
 width="100.000000pt" height="100.000000pt" viewBox="0 0 100.000000 100.000000"
 preserveAspectRatio="xMidYMid meet">
<metadata>
Created by potrace 1.10, written by Peter Selinger 2001-2011
</metadata>
<g transform="translate(0.000000,100.000000) scale(0.100000,-0.100000)"
fill="#ffffff" stroke="none">
<path d="M926 985 c-11 -8 -32 -15 -48 -15 -31 0 -64 -39 -55 -65 8 -20 -11
-29 -29 -14 -22 18 -42 -4 -24 -26 17 -20 5 -32 -15 -15 -21 18 -44 -2 -27
-23 9 -11 5 -20 -21 -43 -60 -56 -59 -56 -112 -29 -75 38 -105 33 -212 -37
-62 -40 -62 -40 -46 -65 15 -23 15 -27 -2 -59 -40 -75 -127 -108 -150 -56 -5
12 -13 22 -17 22 -16 0 -127 -113 -143 -145 -27 -58 -22 -154 11 -215 32 -60
114 -139 173 -170 55 -27 152 -30 205 -5 33 16 146 127 146 143 0 4 -10 12
-22 17 -53 23 -21 109 55 150 33 17 37 17 60 2 24 -16 25 -16 70 51 69 100 70
138 9 254 -2 4 16 28 39 53 33 36 44 43 56 34 21 -18 41 5 23 26 -17 20 -5 32
15 15 22 -18 44 2 26 24 -15 18 -6 37 14 29 25 -9 65 24 65 55 0 15 7 38 16
50 15 22 15 25 -7 48 -26 28 -28 28 -53 9z m19 -58 c-8 -12 -15 -32 -15 -44 0
-29 -17 -29 -47 -1 -29 28 -29 48 0 48 13 0 32 6 42 14 27 19 39 9 20 -17z
m-85 -73 c0 -6 -311 -348 -320 -352 -4 -1 -15 6 -24 17 -18 20 -17 22 40 73
32 29 110 101 173 160 107 99 131 117 131 102z m-285 -131 c19 -9 35 -20 35
-24 0 -4 -15 -19 -32 -34 -18 -15 -57 -50 -87 -77 l-54 -49 49 -50 c26 -27 51
-49 54 -49 3 0 38 38 79 85 41 47 77 85 81 85 11 0 40 -70 40 -99 0 -16 -16
-53 -37 -84 -32 -48 -39 -54 -56 -46 -28 15 -62 3 -108 -38 -67 -60 -88 -126
-53 -164 15 -17 14 -21 -11 -51 -73 -87 -147 -107 -239 -65 -31 14 -56 30 -56
35 0 5 42 46 94 90 l93 82 -50 50 -51 51 -37 -43 c-21 -24 -57 -66 -81 -95
-24 -29 -47 -52 -51 -53 -4 0 -20 25 -34 56 -42 92 -22 166 65 239 30 25 34
26 51 11 10 -9 34 -16 55 -16 68 0 168 116 147 172 -7 20 -3 27 27 47 83 56
109 62 167 34z m-281 -432 c16 -17 13 -21 -65 -89 -101 -86 -133 -86 -57 0 29
32 62 70 72 83 24 30 28 30 50 6z"/>
</g>
</svg>
