<?xml version="1.0" standalone="no"?>
<!DOCTYPE svg PUBLIC "-//W3C//DTD SVG 20010904//EN"
 "http://www.w3.org/TR/2001/REC-SVG-20010904/DTD/svg10.dtd">
<svg version="1.0" xmlns="http://www.w3.org/2000/svg"
 width="100.000000pt" height="100.000000pt" viewBox="0 0 100.000000 100.000000"
 preserveAspectRatio="xMidYMid meet">
<metadata>
Created by potrace 1.10, written by Peter Selinger 2001-2011
</metadata>
<g transform="translate(0.000000,100.000000) scale(0.100000,-0.100000)"
fill="#ffffff" stroke="none">
<path d="M581 954 c-59 -30 -106 -91 -117 -153 -9 -55 -155 -268 -261 -383
-23 -26 -43 -53 -43 -59 0 -7 10 -23 22 -36 l22 -23 -31 -33 c-40 -42 -53 -68
-53 -107 0 -63 52 -124 115 -136 71 -13 91 0 265 171 91 89 175 168 188 174
33 17 77 5 107 -31 47 -56 27 -105 -89 -218 -58 -56 -69 -80 -38 -80 22 0 152
131 176 177 52 102 -37 219 -152 198 -31 -5 -66 -35 -202 -170 -91 -89 -175
-168 -187 -174 -40 -20 -73 -13 -110 24 -31 31 -35 40 -30 72 4 22 19 50 38
70 29 29 34 31 49 18 25 -22 35 -19 88 29 132 117 329 251 383 260 104 18 186
124 177 231 -7 78 -48 141 -117 177 -70 37 -129 37 -200 2z m177 -35 c83 -41
121 -137 87 -225 l-18 -46 -129 128 -129 129 38 17 c51 23 98 22 151 -3z m-35
-224 l80 -74 -44 -21 c-55 -24 -102 -25 -154 -1 -48 22 -69 44 -90 94 -21 50
-19 93 6 144 l21 44 50 -56 c28 -30 87 -89 131 -130z m-153 -123 l50 -29 -57
-38 c-76 -50 -244 -179 -268 -205 l-19 -21 -37 37 -38 37 58 67 c58 67 168
217 191 260 12 22 13 21 41 -29 21 -36 43 -59 79 -79z"/>
<path d="M422 537 c-36 -37 -42 -67 -14 -67 26 0 86 65 79 84 -10 25 -30 19
-65 -17z"/>
</g>
</svg>
