<?xml version="1.0" standalone="no"?>
<!DOCTYPE svg PUBLIC "-//W3C//DTD SVG 20010904//EN"
 "http://www.w3.org/TR/2001/REC-SVG-20010904/DTD/svg10.dtd">
<svg version="1.0" xmlns="http://www.w3.org/2000/svg"
 width="100.000000pt" height="100.000000pt" viewBox="0 0 100.000000 100.000000"
 preserveAspectRatio="xMidYMid meet">
<metadata>
Created by potrace 1.10, written by Peter Selinger 2001-2011
</metadata>
<g transform="translate(0.000000,100.000000) scale(0.100000,-0.100000)"
fill="#ffffff" stroke="none">
<path d="M400 949 c-73 -14 -162 -64 -222 -125 -185 -186 -181 -476 8 -653
112 -105 244 -147 386 -123 97 16 166 52 242 123 193 180 193 474 0 659 -114
109 -255 150 -414 119z m205 -44 c312 -81 418 -473 191 -701 -241 -240 -651
-107 -709 230 -50 295 226 546 518 471z"/>
<path d="M696 724 c-35 -40 -46 -58 -38 -66 8 -8 25 1 59 32 26 24 52 47 57
51 9 8 -9 39 -23 39 -3 0 -28 -25 -55 -56z"/>
<path d="M420 658 c-132 -67 -132 -249 0 -315 56 -29 104 -29 160 -1 132 67
132 249 0 316 -24 12 -60 22 -80 22 -20 0 -56 -10 -80 -22z m148 -38 c42 -26
72 -76 72 -120 0 -44 -30 -94 -72 -120 -117 -71 -259 71 -188 188 42 68 124
91 188 52z"/>
<path d="M470 525 c-26 -32 13 -81 48 -59 22 14 27 41 12 59 -16 19 -44 19
-60 0z"/>
<path d="M270 300 c-52 -47 -54 -50 -37 -67 16 -17 19 -15 65 37 26 30 47 58
47 64 0 23 -24 12 -75 -34z"/>
</g>
</svg>
