<?xml version="1.0" standalone="no"?>
<!DOCTYPE svg PUBLIC "-//W3C//DTD SVG 20010904//EN"
 "http://www.w3.org/TR/2001/REC-SVG-20010904/DTD/svg10.dtd">
<svg version="1.0" xmlns="http://www.w3.org/2000/svg"
 width="100.000000pt" height="100.000000pt" viewBox="0 0 100.000000 100.000000"
 preserveAspectRatio="xMidYMid meet">
<metadata>
Created by potrace 1.10, written by Peter Selinger 2001-2011
</metadata>
<g transform="translate(0.000000,100.000000) scale(0.100000,-0.100000)"
fill="#ffffff" stroke="none">
<path d="M914 941 c-2 -2 -1 -7 1 -11 6 -9 55 0 55 10 0 8 -48 9 -56 1z"/>
<path d="M880 930 c0 -5 5 -10 10 -10 6 0 10 5 10 10 0 6 -4 10 -10 10 -5 0
-10 -4 -10 -10z"/>
<path d="M816 921 c-4 -5 -2 -12 3 -15 5 -4 12 -2 15 3 4 5 2 12 -3 15 -5 4
-12 2 -15 -3z"/>
<path d="M850 920 c0 -5 5 -10 10 -10 6 0 10 5 10 10 0 6 -4 10 -10 10 -5 0
-10 -4 -10 -10z"/>
<path d="M876 905 c-57 -12 -62 -16 -226 -180 l-167 -167 -17 27 c-10 15 -33
33 -53 41 -63 27 -129 -11 -155 -91 -12 -38 -15 -40 -67 -47 -133 -20 -205
-119 -180 -251 25 -133 177 -240 296 -208 90 23 148 87 159 174 6 45 10 49 55
73 55 27 82 62 77 96 -2 19 -10 23 -43 26 -22 1 -47 5 -54 8 -23 8 367 394
397 394 13 0 41 17 64 38 36 34 39 41 29 60 -13 25 -29 26 -115 7z m54 -45
c-14 -11 -36 -20 -49 -20 -18 0 -78 -56 -237 -217 -172 -176 -216 -215 -226
-205 -10 10 29 54 201 226 197 197 218 215 260 224 71 15 79 14 51 -8z m-527
-271 c50 -27 49 -63 -3 -114 -22 -21 -40 -44 -40 -49 0 -14 51 -66 66 -66 6 0
17 7 24 15 11 13 14 13 27 0 8 -8 30 -15 49 -15 48 0 42 -15 -16 -45 -58 -29
-75 -53 -85 -115 -6 -34 -18 -55 -49 -87 -67 -67 -149 -70 -228 -10 -99 76
-133 180 -86 262 27 47 94 85 150 85 40 0 78 27 78 55 0 28 30 76 53 85 30 12
35 12 60 -1z"/>
<path d="M287 383 c-13 -14 -10 -20 31 -59 68 -66 94 -40 28 28 -39 41 -45 44
-59 31z"/>
<path d="M202 297 c-9 -10 -1 -23 33 -57 39 -38 45 -41 59 -28 13 14 10 20
-28 57 -46 46 -49 47 -64 28z"/>
<path d="M344 169 c-10 -17 13 -36 27 -22 12 12 4 33 -11 33 -5 0 -12 -5 -16
-11z"/>
<path d="M204 129 c-10 -17 13 -36 27 -22 12 12 4 33 -11 33 -5 0 -12 -5 -16
-11z"/>
<path d="M284 129 c-10 -17 13 -36 27 -22 12 12 4 33 -11 33 -5 0 -12 -5 -16
-11z"/>
</g>
</svg>
