<?xml version="1.0" standalone="no"?>
<!DOCTYPE svg PUBLIC "-//W3C//DTD SVG 20010904//EN"
 "http://www.w3.org/TR/2001/REC-SVG-20010904/DTD/svg10.dtd">
<svg version="1.0" xmlns="http://www.w3.org/2000/svg"
 width="100.000000pt" height="100.000000pt" viewBox="0 0 100.000000 100.000000"
 preserveAspectRatio="xMidYMid meet">
<metadata>
Created by potrace 1.10, written by Peter Selinger 2001-2011
</metadata>
<g transform="translate(0.000000,100.000000) scale(0.100000,-0.100000)"
fill="#ffffff" stroke="none">
<path d="M805 990 c-4 -6 -1 -18 6 -26 16 -19 4 -30 -16 -14 -21 18 -44 -2
-26 -23 9 -11 8 -17 -4 -27 -8 -7 -15 -20 -15 -28 0 -9 -32 -48 -70 -87 l-71
-71 -56 28 c-66 33 -93 34 -151 8 -35 -16 -47 -29 -68 -74 -30 -66 -35 -70
-104 -86 -78 -18 -111 -33 -154 -70 -52 -46 -68 -83 -68 -155 1 -84 35 -151
123 -237 88 -87 151 -119 234 -120 72 0 109 16 154 67 36 41 53 78 71 155 14
63 31 85 67 95 41 10 73 36 94 76 26 52 24 86 -9 152 l-28 56 71 71 c39 38 78
70 87 70 8 0 21 7 28 15 10 12 16 13 27 4 21 -18 41 5 23 26 -17 20 -5 32 15
15 20 -17 46 3 28 21 -8 8 -8 20 -3 35 12 30 4 51 -29 88 -34 36 -64 48 -96
36 -15 -6 -26 -6 -30 0 -8 13 -22 13 -30 0z m125 -65 l34 -35 -49 -50 c-27
-28 -54 -50 -60 -50 -5 0 -80 -70 -165 -155 l-155 -155 -27 29 -27 28 154 153
c85 84 155 157 155 163 0 12 90 107 100 107 3 0 21 -16 40 -35z m-399 -217
l50 -21 -68 -69 c-37 -38 -85 -77 -106 -85 -80 -33 -89 -141 -16 -179 57 -29
109 -10 139 50 10 23 50 72 88 109 l68 68 23 -50 c39 -82 14 -142 -72 -172
-53 -19 -66 -37 -88 -125 -11 -43 -31 -95 -44 -115 -31 -44 -92 -79 -136 -79
-123 0 -329 206 -329 328 0 45 35 106 79 137 20 13 72 33 115 44 89 22 103 33
127 94 17 44 67 87 101 87 11 0 42 -10 69 -22z m-45 -234 c37 -55 -25 -117
-80 -80 -49 31 -24 106 35 106 20 0 34 -8 45 -26z"/>
<path d="M840 895 c-24 -24 -41 -48 -37 -52 8 -7 97 75 97 89 0 17 -18 6 -60
-37z"/>
<path d="M880 855 c-24 -25 -41 -48 -37 -52 4 -4 28 14 53 39 26 25 42 48 37
51 -5 4 -29 -14 -53 -38z"/>
<path d="M205 360 c-19 -21 -18 -21 58 -98 l77 -77 20 20 20 21 -78 77 -78 78
-19 -21z"/>
</g>
</svg>
