<?xml version="1.0" standalone="no"?>
<!DOCTYPE svg PUBLIC "-//W3C//DTD SVG 20010904//EN"
 "http://www.w3.org/TR/2001/REC-SVG-20010904/DTD/svg10.dtd">
<svg version="1.0" xmlns="http://www.w3.org/2000/svg"
 width="100.000000pt" height="100.000000pt" viewBox="0 0 100.000000 100.000000"
 preserveAspectRatio="xMidYMid meet">
<metadata>
Created by potrace 1.10, written by Peter Selinger 2001-2011
</metadata>
<g transform="translate(0.000000,100.000000) scale(0.100000,-0.100000)"
fill="#ffffff" stroke="none">
<path d="M400 920 c0 -45 27 -80 60 -80 18 0 20 -7 20 -80 l0 -79 -37 -7 c-52
-9 -93 -31 -93 -50 0 -17 10 -16 69 2 21 6 23 5 17 -11 -3 -10 -9 -80 -13
-156 l-6 -139 -38 0 c-31 0 -38 4 -41 22 -4 29 -28 35 -35 9 -9 -36 -83 -23
-83 15 0 18 -6 24 -21 24 -21 0 -21 -3 -16 -60 12 -112 75 -203 175 -252 57
-28 77 -33 142 -33 78 0 140 18 140 40 0 19 -21 24 -48 12 -29 -13 -33 -8 -25
36 5 34 8 37 40 37 28 0 34 4 31 18 -3 12 -13 17 -37 15 -25 -1 -31 2 -27 14
3 8 6 25 6 38 0 22 5 24 68 30 37 3 80 8 95 10 27 5 28 3 22 -24 -4 -21 -2
-30 10 -35 24 -9 39 39 39 129 0 67 -4 88 -27 132 -47 92 -136 160 -229 177
l-38 7 0 79 c0 73 2 80 20 80 33 0 60 35 60 80 l0 40 -100 0 -100 0 0 -40z
m158 -17 c-3 -15 -14 -18 -58 -18 -44 0 -55 3 -58 18 -3 15 5 17 58 17 53 0
61 -2 58 -17z m-34 -285 c12 -47 8 -58 -24 -58 -22 0 -30 5 -30 18 0 36 13 62
30 62 10 0 20 -10 24 -22z m77 0 c8 -7 20 -25 27 -40 11 -27 10 -28 -19 -28
-30 0 -33 3 -43 53 -7 30 9 36 35 15z m100 -64 c24 -25 28 -33 14 -28 -29 10
-42 22 -48 44 -3 11 -4 20 -3 20 1 0 18 -16 37 -36z m-161 -74 c0 -40 0 -40
-40 -40 -40 0 -40 0 -40 40 0 40 0 40 40 40 40 0 40 0 40 -40z m106 26 c1 -1
4 -18 7 -39 l6 -38 -37 7 c-20 4 -37 7 -38 8 -1 0 -4 18 -7 38 l-5 36 36 -5
c20 -3 37 -6 38 -7z m117 -54 c13 -29 8 -33 -36 -25 -34 5 -37 8 -37 38 0 33
0 33 31 22 17 -7 36 -22 42 -35z m-223 -92 c0 -40 0 -40 -40 -40 -40 0 -40 0
-40 40 0 40 0 40 40 40 40 0 40 0 40 -40z m120 0 c0 -40 0 -40 -40 -40 -40 0
-40 0 -40 40 0 40 0 40 40 40 40 0 40 0 40 -40z m98 24 c48 -13 18 -53 -40
-54 -13 0 -18 8 -18 30 0 32 11 36 58 24z m-308 -84 c0 -5 -2 -10 -4 -10 -3 0
-8 5 -11 10 -3 6 -1 10 4 10 6 0 11 -4 11 -10z m120 6 c0 -3 -4 -8 -10 -11 -5
-3 -10 -1 -10 4 0 6 5 11 10 11 6 0 10 -2 10 -4z m-277 -16 c13 0 17 -8 17
-35 0 -34 -1 -34 -27 -23 -51 21 -77 77 -30 64 12 -3 30 -6 40 -6z m123 -14
c1 0 4 -18 7 -38 l5 -36 -36 5 c-20 3 -37 6 -38 7 -1 1 -4 18 -7 39 l-6 38 37
-7 c20 -4 37 -7 38 -8z m124 -36 c0 -40 0 -40 -40 -40 -40 0 -40 0 -40 40 0
40 0 40 40 40 40 0 40 0 40 -40z m-222 -64 c10 -12 23 -46 19 -46 -2 0 -18 15
-36 34 -28 29 -30 34 -13 29 12 -3 25 -10 30 -17z m114 -45 c5 -18 7 -36 4
-39 -13 -12 -52 17 -63 47 -12 32 -12 32 20 29 26 -2 32 -9 39 -37z m98 12 c0
-37 -13 -63 -30 -63 -17 0 -30 26 -30 63 0 12 8 17 30 17 22 0 30 -5 30 -17z"/>
<path d="M178 715 c59 -78 58 -72 25 -113 -49 -62 -49 -69 -1 -29 26 20 51 37
56 37 5 0 31 -17 58 -37 l49 -37 -28 34 c-53 67 -54 73 -11 126 41 50 34 50
-28 1 l-37 -29 -53 38 c-51 38 -52 38 -30 9z"/>
<path d="M278 468 c14 -23 19 -39 12 -43 -5 -3 -15 -15 -21 -27 -11 -20 -11
-20 20 -2 30 18 32 18 62 0 31 -18 31 -18 20 2 -6 12 -16 24 -21 27 -7 4 -2
20 12 43 22 35 14 37 -24 4 -16 -13 -20 -13 -35 0 -39 33 -47 31 -25 -4z"/>
<path d="M665 230 c5 -8 22 -32 38 -52 33 -41 34 -35 -25 -113 l-23 -30 30 23
c78 59 72 58 113 25 62 -49 69 -49 28 1 -43 53 -42 59 11 126 l28 34 -49 -37
c-27 -20 -53 -37 -58 -37 -5 0 -30 17 -56 38 -25 20 -42 30 -37 22z"/>
</g>
</svg>
