<?xml version="1.0" encoding="utf-8"?>
<!-- Generator: Adobe Illustrator 22.0.0, SVG Export Plug-In . SVG Version: 6.00 Build 0)  -->
<svg version="1.1" id="Capa_1" xmlns="http://www.w3.org/2000/svg" xmlns:xlink="http://www.w3.org/1999/xlink" x="0px" y="0px"
	 viewBox="0 0 640 480" style="enable-background:new 0 0 640 480;" xml:space="preserve">
<style type="text/css">
	.st0{fill:#FFFFFF;}
	.st1{enable-background:new    ;}
    @keyframes appear{
        from { opacity: 0 }
        to { opacity: 1 }    
    }
    .lines{
        opacity: 0;
        animation-name: appear;
        animation-duration: 1s;
        animation-fill-mode: forwards;
    }
    #line1{
        animation-delay: 0.5s;
    }
    #line2{
        animation-delay: 1s;
    }

    #line3{
        animation-delay: 1.5s;
    }
</style>
<path id="b1YpZdAZ5" class="st0" d="M341.1,84h0.5l0.5,0.1l0.5,0.1l0.5,0.1l0.5,0.1l0.5,0.1l0.5,0.2l0.6,0.2l0.6,0.2l0.6,0.2
	l0.6,0.2l0.6,0.3l0.6,0.3l0.6,0.3l0.6,0.3l0.6,0.5L350,88l0.7,0.5l0.7,0.5l0.7,0.6l0.7,0.6l0.7,0.6l0.7,0.7l0.7,0.7l0.8,0.6l0.7,0.8
	l0.6,0.6l0.5,0.6l0.6,0.6l0.5,0.6l0.6,0.6l0.5,0.6l0.5,0.6l0.6,0.6l0.5,0.6l0.5,0.7l0.5,0.7l0.5,0.7l0.5,0.7l0.5,0.7l0.5,0.7
	l0.5,0.7l0.5,0.7l0.5,0.7l0.5,0.7l0.5,0.7l0.5,0.7l0.5,0.7l0.5,0.8l0.5,0.8l0.5,0.8l0.5,0.8l0.5,0.8l0.5,0.8l0.5,0.8l0.5,0.8
	l0.5,0.8l0.5,0.8l0.5,0.8l0.5,0.8l0.5,0.8l0.5,0.8l0.5,0.8l0.5,0.9l0.5,0.9l0.5,0.9l0.5,0.9l0.5,0.9l0.5,0.9l0.5,0.9l0.3,0.9
	l0.3,0.9l0.3,0.9l0.3,0.9l0.3,0.9l0.3,0.9l0.3,0.9l0.3,0.9l0.3,0.9l0.3,0.8l0.3,0.9l0.3,0.8l0.3,0.8l0.3,0.8l0.2,0.8l0.2,0.8
	l0.2,0.8l0.2,0.8l0.2,0.8l0.2,0.8l0.2,0.8l0.2,0.8l0.2,0.8l0.2,0.8l0.2,0.8l0.2,0.8l0.2,0.8l0.2,0.8l0.1,0.8l0.1,0.8l0.1,0.8
	l0.1,0.8l0.1,0.8l0.1,0.7l0.1,0.7l0.1,0.7l0.1,1l0.1,1l0.1,1l0.1,0.9v0.9v0.9v0.8v0.8v0.8v0.8l-0.1,0.7l-0.1,0.7l-0.1,0.7l-0.1,0.7
	l-0.1,0.6l-0.1,0.6l-0.1,0.6l-0.1,0.6l-0.2,0.6l-0.2,0.5l-0.2,0.5l-0.2,0.5l-0.2,0.5l-0.2,0.5l-0.2,0.3l-0.2,0.3l-0.2,0.3l-0.2,0.3
	l-0.2,0.3l-0.2,0.3l-0.2,0.2l0.7,0.2l-0.2,0.2l-0.2,0.2l-0.2,0.2l-0.2,0.2l-0.2,0.2l-0.2,0.1l-0.2,0.1l-0.2,0.1l0,0l0,0l0,0l0,0l0,0
	h-0.1l0,0l0,0l0,0l0,0l-0.3,0.1l-0.3,0.1l-0.3,0.1l-0.3,0.1l-0.3,0.1l-0.3,0.1l-0.3,0.1l-0.3,0.1l-0.5,0.1l-0.5,0.1l-0.5,0.1
	l-0.5,0.1l-0.5,0.1l-1,0.5l-0.5,0.1l-0.6,0.1l-0.6,0.1l-0.6,0.1l-0.6,0.1l-0.6,0.1l-0.6,0.1l-0.6,0.1l-0.6,0.1l-0.7,0.1l-0.7,0.1
	l-0.7,0.1l-0.7,0.1l-0.7,0.1l-0.7,0.1l-0.7,0.1l-0.7,0.1l-0.8,0.1l-0.8,0.1l-0.8,0.1l-0.8,0.1l-0.8,0.1l-0.8,0.1l-0.8,0.1l-0.8,0.1
	l-0.9,0.1l-1.3,0.2l-1.3,0.2l-1.4,0.2l-1.4,0.2l-1.4,0.2l-1.4,0.2l-1.4,0.2l-1.4,0.2l-1.5,0.2l-1.5,0.2l-1.5,0.2l-1.5,0.2l-1.5,0.2
	l-1.5,0.3L336,185l-1.6,0.3l-1.6,0.3l-1.6,0.3l-1.6,0.3l-1.6,0.3l-1.6,0.3l-1.6,0.3l-1.6,0.3l-1.6,0.3l-1.7,0.3l-1.7,0.3l-1.7,0.3
	l-1.7,0.5L313,190l-1.7,0.5l-1.7,0.5l-1.7,0.5l-1.7,0.5l-1.7,0.5l-1.7,0.5l-1.7,0.5l-1.7,0.5l-1.7,0.6l-1.7,0.6l-1.7,0.6l38.7,33.9
	l0.2,0.1l0.2,0.1l0.2,0.2l0.2,0.1l0.1,0.2l0.1,0.2l0.1,0.2l0.1,0.2l0.1,0.2l0.1,0.2l0.1,0.2l0.1,0.2l0.1,0.2l0.1,0.2l0.1,0.2
	l0.1,0.2l0.1,0.2l0.1,0.2l0.1,0.2l0.1,0.2l0.1,0.2l0.1,0.2l0.1,0.2l0.1,0.2v0.2v0.2v0.2v0.2v0.2v0.2v0.2v0.2v0.2v0.2v0.2v0.2v0.2
	v0.2v0.2v0.2v0.2v0.2v0.2v0.2v0.2v0.2l-0.1,0.2l-0.1,0.2l-0.1,0.2l-0.1,0.2l-0.1,0.2l-0.1,0.2l-0.1,0.2l-0.1,0.2l-0.1,0.2l-0.1,0.2
	l-0.1,0.2l-0.1,0.2l-0.1,0.2l-0.1,0.2l-0.1,0.1l-0.1,0.2l-0.1,0.1l-0.1,0.1l-0.1-0.7l-0.1,0.1l-0.1,0.1l-0.2,0.1l-0.1,0.1l-0.2,0.1
	l-0.2,0.1l-0.2,0.1l-0.2,0.1l-0.2,0.1l-0.2,0.1l-0.2,0.1l-0.2,0.1l-0.2,0.1l-0.2,0.1l-0.2,0.1l-9,4.5l-0.5,0.2l-0.5,0.1l-0.5,0.1
	l-0.5,0.1l-0.5,0.1l-0.5,0.1l-0.5,0.1l-0.5,0.1l-0.5,0.1h-0.5h-0.5h-0.5h-0.5h-0.5h-0.5h-0.5H314h-0.5l-0.5-0.1l-0.5-0.1l-0.5-0.1
	l-0.5-0.1l-0.5-0.1l-0.5-0.1l-0.5-0.1l-0.5-0.2l-0.5-0.2l-0.5-0.2l-0.5-0.2l0.2,0.1l-0.3-0.2l-0.3-0.2l-0.3-0.2l-0.3-0.2l-0.3-0.2
	l-0.3-0.3l-0.3-0.3l-0.3-0.3l-0.3-0.3l-0.3-0.3l-34.3-41.1l-0.2,0.1l-0.2,0.1l-0.2,0.1l-0.2,0.1l-0.2,0.1l0-0.1l-0.2,0.1l-0.2,0.1
	l-0.2,0.1l-0.2,0.1l-0.2,0.1l-0.2,0.1l-0.2,0.1l-0.2,0.1l-0.2,0.1l-0.2,0.1l-0.2,0.1l-0.2,0.1l-0.2,0.1l-0.2,0.1l-0.2,0.1l-0.2,0.1
	l-0.2,0.1l-0.2,0.1l-0.2,0.1l-0.2,0.1l-0.2,0.1l-0.2,0.1l-0.2,0.1l-0.2,0.1l-0.2,0.1l-0.2,0.1l-0.2,0.1l-0.2,0.1l-0.2,0.1l-0.2,0.1
	l-0.2,0.1l-0.2,0.1l-0.2,0.1l-0.2,0.1l-0.6,0.2l-0.6,0.2l-0.6,0.2l-0.6,0.1l-0.7,0.1h-0.7h-0.7H257l-0.7-0.1l-0.7-0.1l-0.7-0.1
	l-0.7-0.2l-0.7-0.2l-0.7-0.2l-0.7-0.3l-0.7-0.3l-0.7-0.3l-0.7-0.3l-0.7-0.5l-0.7-0.5l-0.7-0.5l-0.7-0.6l-0.7-0.6l-0.7-0.6l-0.7-0.6
	l-0.7-0.7l-0.7-0.7l-0.7-0.7l-0.7-0.8l-0.7-0.8l-0.7-0.8l-0.6-0.8l-0.6-0.9l-0.6-0.9l-0.6-0.9l-0.6-0.9l-0.6-0.9l-0.6-1l-0.6-1
	l-0.6-1l-0.5-1l-0.5-1l-0.5-1l-0.5-1l-0.3-1l-0.3-1l-0.3-1l-0.3-1l-0.2-1l-0.2-1l-0.2-1l-0.2-1l-0.1-0.9l-0.1-0.9l-0.1-0.9l-0.1-0.9
	v-0.9v-0.9v-0.9V171v-0.8l0.1-0.8l0.1-0.8l0.1-0.8l0.2-0.8l0.2-0.7l0.2-0.7l0.2-0.7l0.2-0.7l0.3-0.6l0.3-0.6l0.3-0.6l0.3-0.6
	l0.5-0.5l0.5-0.5l0.5-0.5l0.5-0.5l0.6-0.3l0.6-0.3l0.6-0.3l2.4-1.3l2.4-1.3l2.4-1.3l2.4-1.3l2.4-1.4l2.3-1.4l2.3-1.4l2.3-1.4
	l2.3-1.5l2.3-1.5l2.2-1.5l2.2-1.5l2.2-1.5l2.2-1.5l2.2-1.5l2.1-1.6l2.1-1.6l2.1-1.6l2.1-1.6l1.9-1.6l1.9-1.6l1.9-1.6l1.9-1.6
	l1.9-1.6l1.8-1.6l1.8-1.6l1.8-1.5l1.7-1.5l1.7-1.5l1.7-1.5l1.7-1.5l1.6-1.5l1.6-1.5l1.6-1.5l1.6-1.4l1.5-1.4l1.5-1.4l1.5-1.4
	l1.4-1.3l1.4-1.3l0.7-0.6l0.6-0.6l0.6-0.6l0.6-0.6l0.6-0.6l0.6-0.6l0.6-0.6l0.6-0.6l0.6-0.6L322,95l0.6-0.5l0.6-0.5l0.6-0.5l0.6-0.5
	l0.5-0.5l0.5-0.5l0.5-0.5l0.5-0.5l0.5-0.5l0.5-0.3l0.5-0.3l0.5-0.3l0.5-0.3l0.5-0.3l0.5-0.3l0.3-0.3l0.5-0.3l0.3-0.3l0.3-0.3
	l0.3-0.2l0.3-0.2l0.3-0.2l0.3-0.2l0.3-0.2l0.3-0.2l0.3-0.2l0.3-0.2l0.3-0.2l0.3-0.1l0.3-0.1l0,0l0,0l0,0l0,0l0,0l0,0l0,0l0,0l0,0
	l0,0l0,0l0,0l0.3-0.1l0.3-0.1l0.3-0.1l0.3-0.1l0.3-0.1l0.3-0.1l0.3-0.1h0.3h0.3h0.3h0.3h0.5h0.5L341.1,84z M285,198.7l-0.3,0.1
	l-0.3,0.1L284,199l-0.3,0.1l-0.3,0.1l-0.3,0.1l-0.3,0.1l-0.3,0.1l-0.3,0.1l-0.3,0.1l-0.3,0.1l-0.3,0.1l-0.3,0.1l-0.3,0.1l-0.3,0.1
	l-0.3,0.1l-0.3,0.1l-0.3,0.1l-0.3,0.1l-0.3,0.1l-0.3,0.1l-0.3,0.1l32.7,39.1l0.2,0.2l0.2,0.2l0.2,0.2l0.2,0.2l0.2,0.2l0.3,0.1
	l0.3,0.1l0.3,0.1l0.3,0.1l0.3,0.1l0.3,0.1l0.3,0.1h0.3h0.3h0.3h0.3h0.3h0.3h0.3h0.3l0.3-0.1l0.3-0.1l0.3-0.1l0.3-0.1l9-4.5h0.1h0.1
	h0.1h0.1h0.1h0.1h0.1l0,0l0,0l0,0l0,0l0,0l0,0l0,0l0,0l0,0l0,0l0,0l0,0l0,0l0,0l0,0l0,0l0,0l0,0l0,0l0,0l0,0l0,0l0,0l0,0l0,0l0,0
	l0,0l0,0l0,0l0,0l0,0l0,0l0,0l0,0v-0.1v-0.1V237v-0.1v-0.1l-0.1-0.1l-0.1-0.1l-42.1-37l-0.3,0.1L285,198.7z M263.4,153.8l-0.9,0.6
	l-0.9,0.6l-0.9,0.6l-0.9,0.6l-0.9,0.6l-0.9,0.6l-0.9,0.6l-0.9,0.6l-0.9,0.6l-0.9,0.6l-0.9,0.6l-0.9,0.6l-0.9,0.6l-0.9,0.6l-0.9,0.6
	l-0.9,0.6l-0.9,0.5l-0.9,0.5l-1,0.5l-1,0.5l-1,0.5l-1,0.5l-0.3,0.2l-0.3,0.3l-0.3,0.3l-0.2,0.5l-0.2,0.5l-0.2,0.6l-0.1,0.6l-0.1,0.7
	l-0.1,0.8l-0.1,0.8v0.9v0.9v0.9l0.1,1l0.1,1l0.2,1.1l0.2,1.1l0.2,1.1l0.3,1.1l0.3,1.3l0.5,1.3l0.5,1.3l0.6,1.3l0.6,1.4l0.7,1.3
	l0.7,1.3l0.7,1.1l0.7,1.1l0.7,1l0.7,1l0.7,0.9l0.7,0.9l0.8,0.8l0.7,0.8l0.7,0.7l0.7,0.6l0.7,0.6l0.7,0.5l0.7,0.5l0.7,0.3l0.6,0.3
	l0.6,0.2l0.6,0.2l0.6,0.1h0.5h0.5l0.5-0.1l0.3-0.1l1-0.5l1-0.5l1-0.5l1-0.5l1-0.5l1-0.5l1-0.5l1-0.5l1-0.5l1-0.5l1-0.5l1-0.5l1-0.5
	l1-0.5l1-0.3l1-0.5l1-0.3l1-0.3l1-0.3l1-0.3l1-0.3l1-0.3l1-0.3l1-0.3l-0.6-0.6l-0.6-0.6l-0.6-0.6l-0.6-0.6l-0.6-0.7l-0.6-0.7
	l-0.6-0.8l-0.6-0.7l-0.6-0.7l-0.5-0.7l-0.5-0.7l-0.5-0.7l-0.5-0.8l-0.5-0.8l-0.5-0.8l-0.5-0.8l-0.5-0.8l-0.5-0.8l-0.5-0.8l-0.5-0.8
	l-0.5-0.8l-0.5-0.9l-0.5-0.9l-0.5-0.9l-0.5-0.9l-0.5-0.9l-0.5-0.9l-0.3-0.9l-0.3-0.9l-0.3-0.9l-0.3-0.9l-0.3-0.9l-0.3-0.9l-0.3-0.9
	l-0.3-0.9l-0.3-0.9l-0.2-0.8l-0.2-0.8l-0.2-0.8l-0.2-0.8l-0.2-0.8l-0.2-0.8l-0.2-0.8l-0.2-0.8l-0.1-0.8l-0.1-0.8l-0.1-0.8l-0.1-0.8
	l-0.9,0.6L263.4,153.8z M329.4,100.2l-0.1,0.1l-0.1,0.1l-0.1,0.1l-0.1,0.1l-0.1,0.1l-0.1,0.1l-0.1,0.1l-0.1,0.1l-0.1,0.1l-0.1,0.1
	l-0.1,0.1l-0.1,0.1l-0.1,0.1l-0.1,0.1l-0.2,0.1l-0.1,0.1l-0.1,0.1l-0.2,0.1l-0.2,0.1l-0.1,0.1l-0.2,0.1l-0.1,0.1l-0.2,0.1l-0.2,0.1
	l-0.2,0.1l-0.2,0.1l-0.2,0.1l-0.2,0.1l-0.2,0.1l-0.2,0.1l-0.2,0.1l-0.2,0.1l-0.2,0.1l-0.2,0.1l-0.2,0.1l-0.2,0.1l-0.2,0.1l-0.2,0.1
	l-0.9,0.9l-1,0.9l-1,0.9l-1,0.9l-1,0.9l-1,0.9l-1,0.9l-1,1l-1.1,1l-1.1,1l-1.1,1l-1.1,1l-1.1,1l-1.1,1l-1.1,1l-1.1,1l-1.3,1l-1.3,1
	l-1.3,1l-1.3,1l-1.3,1.1l-1.3,1l-1.3,1.1l-1.4,1.1l-1.4,1.1l-1.4,1.1l-1.4,1.1l-1.4,1.1l-1.4,1.1l-1.4,1.1l-1.4,1.1l-1.4,1.1
	l-1.5,1.1l-1.5,1.1l-1.5,1.1l-1.5,1l-1.5,1l-1.5,1l-1.5,1l-1.5,1v0.5v0.5v0.5v0.5v0.5l0.1,0.5l0.1,0.5l0.1,0.5l0.1,0.5l0.1,0.5
	l0.1,0.6l0.1,0.6l0.1,0.6l0.1,0.6l0.1,0.6l0.1,0.6l0.1,0.6l0.1,0.6l0.1,0.6l0.1,0.6l0.1,0.6l0.1,0.6l0.2,0.6l0.2,0.6l0.2,0.6
	l0.2,0.6l0.2,0.6l0.2,0.6l0.2,0.6l0.2,0.6l0.2,0.6l0.2,0.6l0.2,0.6l0.2,0.6l0.2,0.6l0.2,0.6l0.2,0.6l0.2,0.6l0.2,0.6l0.2,0.6
	l0.3,0.6l0.3,0.6l0.3,0.6l0.3,0.6l0.3,0.6l0.3,0.6l0.3,0.6l0.3,0.6l0.3,0.6l0.3,0.6l0.3,0.6l0.3,0.6l0.3,0.6l0.3,0.6l0.3,0.5
	l0.3,0.6l0.3,0.5l0.3,0.5l0.3,0.5l0.3,0.5l0.3,0.5l0.3,0.5l0.3,0.5l0.3,0.5l0.3,0.5l0.3,0.5l0.3,0.5l0.3,0.5l0.3,0.5l0.3,0.3
	l0.3,0.3l0.3,0.3l0.3,0.3l0.3,0.3l0.3,0.3l0.3,0.3l0.3,0.3l0.3,0.3l0.3,0.3l0.3,0.3l1.7-0.6l1.7-0.6l1.7-0.6l1.7-0.5l1.7-0.5
	l1.7-0.5l1.7-0.5l1.7-0.5l1.7-0.5l1.7-0.5l1.7-0.5l1.7-0.5l1.7-0.5l1.7-0.3l1.7-0.3l1.7-0.3l1.7-0.3l1.7-0.3l1.6-0.3l1.6-0.3
	l1.6-0.3l1.6-0.3l1.6-0.3l1.6-0.3l1.6-0.3l1.6-0.3l1.5-0.2l1.5-0.2l1.5-0.2l1.5-0.2l1.5-0.2l1.5-0.2l1.5-0.2l1.4-0.2l1.4-0.2
	l1.4-0.2l1.4-0.2l1.4-0.2l1.4-0.2l1.3-0.2h0.2h0.2h0.2h0.2h0.2h0.2h0.2h0.2h0.2h0.2h0.2h0.2h0.2h0.2h0.2h0.2h0.2h0.2h0.2h0.2h0.2
	h0.2h0.2h0.2h0.2h0.2h0.2h0.2h0.2h0.2h0.2h0.2h0.2h0.2h0.2h0.2h0.2h0.2h0.2h0.2l-0.1-0.1l-0.1-0.1l-0.1-0.1l-0.1-0.1l-0.1-0.1
	l-0.1-0.1l-0.1-0.1l-0.1-0.1L364,172l-0.1-0.1l-0.1-0.1l-0.1-0.1l-0.1-0.1l-0.1-0.1l-0.1-0.1l-0.1-0.1l-0.1-0.1l-0.1-0.1l-0.1-0.1
	l-0.1-0.1l-0.1-0.1l-0.1-0.1l-0.1-0.1l-0.1-0.1l-0.1-0.1l-0.1-0.1l-0.1-0.1l-0.1-0.1l-0.1-0.1l-0.1-0.1l-0.1-0.1l-0.1-0.1l-0.1-0.1
	l-0.1-0.1l-0.1-0.1l-0.1-0.1l-0.1-0.1l-0.1-0.1l-0.1-0.1l-0.1-0.1l-0.5-0.6l-0.6-0.6l-0.5-0.6l-0.6-0.6l-0.5-0.6l-0.6-0.6l-0.5-0.6
	l-0.5-0.6l-0.6-0.6l-0.5-0.6l-0.5-0.7l-0.5-0.7l-0.5-0.7l-0.5-0.7l-0.5-0.7l-0.5-0.7l-0.5-0.7l-0.5-0.7l-0.5-0.7l-0.5-0.7l-0.5-0.7
	l-0.5-0.8l-0.5-0.8l-0.5-0.8l-0.5-0.8l-0.5-0.8l-0.5-0.8l-0.5-0.8l-0.5-0.8l-0.5-0.8l-0.5-0.8l-0.5-0.8l-0.5-0.8l-0.5-0.8l-0.5-0.8
	l-0.5-0.8l-0.5-0.8l-0.5-0.9l-0.5-0.9l-0.5-0.9l-0.5-0.9l-0.5-0.9l-0.5-0.9l-0.5-0.9l-0.3-0.9l-0.3-0.9l-0.3-0.9l-0.3-0.9l-0.3-0.9
	l-0.3-0.9l-0.3-0.9l-0.3-0.9l-0.3-0.9l-0.3-0.9l-0.3-0.9l-0.3-0.8l-0.3-0.8l-0.3-0.8l-0.3-0.8l-0.2-0.8l-0.2-0.8l-0.2-0.8l-0.2-0.8
	l-0.2-0.8l-0.8-0.9l-0.2-0.8l-0.2-0.8l-0.2-0.8l-0.2-0.8l-0.2-0.8l-0.2-0.8l-0.2-0.8l-0.2-0.8l-0.1-0.8l-0.1-0.8l-0.1-0.8l-0.1-0.8
	l-0.1-0.8l-0.1-0.7l-0.1-0.7v-0.2v-0.1v-0.1v-0.2v-0.1v-0.1V105v-0.1v-0.1v-0.1v-0.1v-0.1v-0.1v-0.1V104v-0.1v-0.1v-0.1v-0.1v-0.1
	v-0.1v-0.1v-0.1V103v-0.1v-0.1v-0.1v-0.1v-0.1v-0.1v-0.1v-0.1V102v-1.4v-0.1v-0.1v-0.1v-0.1V100v-0.1L330,100L329.4,100.2z
	 M340,91.8h-0.1h-0.1h-0.1h-0.1h-0.1l-0.1,0.1l-0.1,0.1l-0.1,0.1l-0.1,0.1l-0.1,0.1l-0.1,0.1l-0.1,0.1l-0.1,0.2l-0.1,0.2l-0.1,0.2
	l-0.1,0.2l-0.1,0.2L338,94l-0.1,0.3l-0.1,0.3l-0.1,0.3l-0.1,0.3l-0.1,0.3v0.5v0.5v0.5v0.5V98v0.6v0.6v0.6v0.6v0.6v0.7v0.7v0.7
	l0.1,0.7l0.1,0.8l0.1,0.8v0.3v0.3v0.3v0.3v0.3l0.1,0.3v0.3l0.1,0.3v0.3l0.1,0.3l0.1,0.3l0.1,0.3l0.1,0.3l0.1,0.3l0.1,0.3l0.1,0.3
	l0.1,0.3l0.1,0.3l0.1,0.3l0.1,0.3l0.1,0.3l0.1,0.3l0.1,0.3l0.1,0.3l0.1,0.3l0.1,0.3l0.1,0.3l0.1,0.3l0.1,0.3l0.1,0.3l0.1,0.3
	l0.1,0.3l0.1,0.3l0.1,0.3l0.1,0.3l0.3-0.1l0.3-0.1l0.3-0.1l0.3-0.1l0.3-0.1l0.3-0.1h0.3h0.3h0.3h0.3h0.3h0.3h0.3h0.3h0.3h0.3h0.3
	h0.3h0.3h0.3h0.3l0.3,0.1l0.3,0.1l0.3,0.1l0.3,0.1l0.3,0.1l0.3,0.1l0.3,0.1l0.3,0.1l0.3,0.1l0.3,0.1l0.3,0.1l0.3,0.1l0.3,0.1
	l0.3,0.1l0.3,0.2l0.3,0.2l0.3,0.2l0.3,0.2l0.3,0.2l0.3,0.2l0.3,0.2l0.3,0.2l0.3,0.2l0.3,0.2l0.3,0.2l0.3,0.2l0.3,0.2l0.3,0.2
	l0.3,0.2l0.2,0.3l0.3,0.3l0.2,0.3l0.2,0.3l0.2,0.3l0.2,0.3l0.2,0.3l0.2,0.3l0.2,0.3l0.2,0.3l0.2,0.3l0.2,0.3l0.2,0.3l0.2,0.3
	l0.2,0.3l0.2,0.3l0.2,0.3l0.2,0.3l0.2,0.3l0.2,0.3l0.2,0.3l0.2,0.3l0.1,0.3l0.1,0.3l0.1,0.3l0.1,0.3l0.1,0.5l0.1,0.3l0.1,0.5
	l0.1,0.5l0.1,0.3l0.1,0.5l0.1,0.5l0.1,0.5l0.1,0.5l0.1,0.5l0.1,0.5l0.1,0.5v0.5v0.5v0.5v0.5v0.3v0.5v0.5v0.3v0.5v0.3v0.3v0.3v0.3
	v0.3v0.3L365,142v0.3l-0.1,0.3l-0.1,0.3l-0.1,0.3l-0.1,0.3l-0.1,0.3l-0.1,0.3l-0.1,0.3l-0.1,0.3l-0.1,0.3l-0.1,0.3l-0.1,0.3
	l-0.1,0.3l-0.1,0.3l-0.1,0.3l-0.1,0.3l-0.1,0.3l-0.1,0.3l-0.2,0.2l-0.2,0.2l-0.2,0.2l-0.2,0.2l-0.2,0.2l-0.2,0.2l-0.2,0.2l-0.2,0.2
	l-0.2,0.2l-0.2,0.2l-0.2,0.2l-0.2,0.2l-0.2,0.2l-0.2,0.2l-0.2,0.2l-0.2,0.2l-0.2,0.2l-0.2,0.2l0.2,0.3l0.2,0.3l0.2,0.3l0.2,0.3
	l0.2,0.3l0.2,0.3l0.2,0.3l0.2,0.3l0.2,0.3l0.2,0.3l0.2,0.3l0.2,0.3l0.2,0.3l0.2,0.3l0.2,0.3l0.2,0.3l0.2,0.3l0.2,0.3l0.2,0.2
	l0.2,0.2l0.2,0.2l0.2,0.2l0.2,0.2l0.2,0.2l0.2,0.2l0.2,0.2l0.2,0.2l0.2,0.2l0.2,0.2l0.2,0.2l0.2,0.2l0.2,0.2l0.2,0.2l0.2,0.2
	l0.2,0.2l0.6,0.6l0.6,0.6l0.6,0.5l0.5,0.5l0.5,0.5l0.5,0.5l0.5,0.3l0.5,0.3l0.5,0.3l0.5,0.3l0.5,0.3l0.5,0.2l0.3,0.2l0.3,0.2
	l0.3,0.2l0.3,0.2l0.3,0.2l0.3,0.1l0.3,0.1l0.3,0.1l0.3,0.1l0.2,0.1l0.2,0.1l0.2,0.1h0.2h0.2h0.2h0.2h0.2h0.1h0.1h0.1h0.1h0.1h0.1
	h0.1l0.1-0.1l0.1-0.1l0.1-0.1l0.1-0.1l0.1-0.1l0.1-0.1l0.1-0.1l0.1-0.2l0.1-0.2l0.1-0.2l0.1-0.2l0.1-0.2l0.1-0.2l0.1-0.3l0.1-0.3
	l0.1-0.3l0.1-0.3l0.1-0.3v-0.3v-0.5v-0.5v-0.5v-0.5v-0.5v-0.6v-0.6V161v-0.6v-0.7v-0.7v-0.7l-0.1-0.7l-0.1-0.7l-0.1-0.8l-0.1-0.8
	l-0.1-0.8l-0.1-0.8l-1.4-0.6l-0.1-0.8l-0.1-0.8l-0.2-0.8l-0.2-0.8l-0.2-0.8l-0.2-0.8l-0.2-0.8l-0.2-0.8l-0.2-0.9l-0.2-0.9l-0.2-0.9
	l-0.2-0.9l-0.2-0.9l-0.3-0.9l-0.3-0.9l-0.3-0.9l-0.3-0.9l-0.3-0.9l-0.3-0.9l-0.3-0.9l-0.3-0.9l-0.3-0.9l-0.3-0.9l-0.3-0.9l-0.5-0.9
	l-0.5-0.9l-0.5-0.9l-0.5-0.9l-0.5-0.9l-0.5-0.9l-0.5-0.9l-0.5-0.9l-0.5-0.9l-0.5-0.9l-0.5-0.9l-0.5-0.9l-0.5-0.9l-0.5-0.9l-0.5-0.9
	l-0.5-0.9l-0.5-0.9l-0.5-0.8l-0.5-0.8l-0.5-0.8l-0.6-0.8l-0.6-0.8l-0.6-0.8l-0.6-0.8l-0.6-0.8l-0.6-0.8l-0.6-0.8l-0.6-0.7l-0.6-0.7
	l-0.6-0.7l-0.6-0.7l-0.6-0.7l-0.6-0.7l-0.6-0.7l-0.6-0.7l-0.6-0.7l-0.6-0.6l-0.6-0.6l-0.6-0.6l-0.6-0.6l-0.6-0.6l-0.6-0.6l-0.6-0.6
	l-0.6-0.6l-0.6-0.5l-0.5-0.5l-0.5-0.5l-0.5-0.5l-0.5-0.3l-0.5-0.3l-0.5-0.3l-0.5-0.3l-0.5-0.3l-0.5-0.2l-0.3-0.2l-0.3-0.2l-0.3-0.2
	l-0.3-0.2l-0.3-0.2l0.3-0.3l-0.3-0.1l-0.3-0.1l-0.3-0.1l-0.2-0.1l-0.2-0.1l-0.2-0.1h-0.2h-0.2h-0.2h-0.2h-0.2H340L340,91.8z
	 M343.8,126.2l0.5,1.1l0.5,1.1l0.6,1.1l0.6,1.1l0.6,1.1l0.6,1.1l0.6,1.1l0.6,1.3l0.6,1.1l0.6,1.1l0.6,1.1l0.6,1.1l0.6,1.1l0.6,1.1
	l0.6,1.1l0.7,1.1l0.7,1.1l1-0.8l0.8-1.1l0.6-1.4l0.3-1.5l0.1-1.6l-0.1-1.7l-0.3-1.8l-0.6-1.8l-0.8-1.8l-1-1.7l-1.1-1.6l-1.3-1.4
	l-1.4-1.1l-1.4-0.9l-1.4-0.6l-1.4-0.3h-1.4l-1.3,0.3L343.8,126.2z"/>
<g class="st1">
	<path class="st0" d="M3.4,364.1c0-7.6,0-14.8,0.1-21.6c0.1-6.8,0.2-13.5,0.5-20c0.2-6.6,0.6-13.3,1-20.2c0.4-6.9,1-14.2,1.7-22.1
		h4.6v60.9H46c-0.1-3.8-0.1-7.9-0.2-12.3c0-4.4-0.1-8.8-0.2-13.3c-0.1-4.5-0.1-8.9-0.2-13.2c0-4.3-0.1-8.4-0.1-12.1
		c0-3.8-0.1-7.1-0.1-9.9c0-2.9,0-5.1,0-6.7c0.4,0,1,0.1,1.8,0.2c0.8,0.1,1.6,0.3,2.4,0.6c0.8,0.3,1.5,0.7,2.1,1.1s0.9,1.1,0.9,1.9
		v118.7l-4.9-1c-0.2,0-0.3-0.7-0.4-2c-0.1-1.3-0.2-3.1-0.3-5.2c-0.1-2.1-0.1-4.5-0.2-7.1c0-2.7-0.1-5.3-0.1-7.9
		c0-2.6-0.1-5.1-0.1-7.4c0-2.3-0.1-4.3-0.1-5.9c-0.1-1.4-0.1-3.4-0.1-5.9c0-2.5,0-5.5-0.1-8.8l-34.7,6.3l-0.2,45.2H3.6
		c0-0.2,0-0.9-0.1-2.3c0-1.3-0.1-3.1-0.1-5.1c0-2.1,0-4.3,0-6.8s0-4.9,0-7.3c0-2.3,0-4.5,0-6.4S3.4,365.1,3.4,364.1z"/>
	<path class="st0" d="M65.4,358.6c0-3.2,0.7-6.7,2.1-10.5c1.4-3.8,3.3-7.4,5.6-10.8c2.3-3.3,5-6.1,8.1-8.4c3.1-2.3,6.2-3.4,9.5-3.4
		c1.7,0,3.5,0.4,5.3,1.1c1.8,0.7,3.5,1.7,5.1,2.9c1.6,1.2,3.1,2.6,4.4,4.2c1.3,1.5,2.3,3.2,3.1,4.8c0.8,1.7,1.1,3.3,1.2,4.9
		c0,1.6-0.4,3-1.4,4.2l-33.4,6.2c-0.4,0.1-0.8,0.6-1.1,1.5c-0.3,0.9-0.6,2.1-0.8,3.4c-0.2,1.4-0.4,2.9-0.6,4.5
		c-0.2,1.6-0.3,3.2-0.4,4.8c-0.1,1.5-0.1,2.9-0.2,4.2c0,1.2-0.1,2.1-0.1,2.7c0,3,0.7,5.4,2.1,7.3c1.4,1.8,3.3,3.2,5.5,4.2
		c2.2,1,4.7,1.6,7.6,1.9c2.8,0.3,5.6,0.5,8.3,0.5c2.7,0,5.3-0.1,7.8-0.3c2.5-0.2,4.5-0.3,6.1-0.3c0,0.5-0.2,1-0.5,1.5
		c-0.3,0.5-0.7,1-1.1,1.5c-0.4,0.5-0.9,0.9-1.2,1.2c-0.4,0.4-0.7,0.6-0.8,0.7c-0.8,0.2-2.1,0.5-3.9,0.9c-1.8,0.4-3.6,0.7-5.6,1
		c-1.9,0.3-3.8,0.6-5.5,0.8c-1.7,0.2-2.8,0.4-3.4,0.4c-3.3,0.6-6.2,0.6-8.6-0.2c-2.4-0.8-4.5-2-6.2-3.8c-1.7-1.8-3.1-4-4.2-6.5
		c-1.1-2.6-1.9-5.4-2.4-8.3c-0.5-3-0.8-6-0.8-9.2C65,364.7,65.1,361.6,65.4,358.6z M88.4,331.6c-1-0.1-2.2,0.4-3.7,1.4
		c-1.5,1-2.9,2.3-4.3,3.9c-1.3,1.5-2.5,3.2-3.3,4.9c-0.9,1.7-1.2,3.2-1,4.4c2.8,0.4,5.7,0.4,8.6-0.1c3-0.4,5.7-1.1,8.1-2
		c2.4-0.9,4.4-2,6-3.2c1.6-1.2,2.4-2.5,2.3-3.7c0-1.2-1-2.4-3-3.4C96.3,332.8,93,332.1,88.4,331.6z"/>
	<path class="st0" d="M117.7,382.3c0-6,1.7-10.4,5-13.1c3.3-2.7,7.7-4.1,13.1-4.1c2.1,0,4.1,0,6,0.1c1.9,0.1,3.6,0.3,5.4,0.8
		c1.7,0.4,3.4,1.1,5,2c1.6,0.9,3.3,2.1,5.2,3.7c0-0.4,0-1.1,0.1-2.1c0-1,0.1-2.1,0.1-3.2c0-1.1,0-2.2,0-3.3c0-1,0-1.7,0-2.1
		c-0.2-1.9-0.2-4.4-0.2-7.4c0-3-0.2-6.1-0.7-9.3c-0.5-3.2-1.4-6.2-2.9-9c-1.5-2.9-3.8-5-7-6.4c-2.1,0-4.2,0.4-6.1,1.1
		c-1.9,0.7-3.9,1.5-5.8,2.3c-1.9,0.8-3.8,1.6-5.7,2.3s-3.9,1.1-6.1,1.1c0-2.7,0.8-4.9,2.4-6.6c1.6-1.7,3.6-3,5.9-4
		c2.3-1,4.7-1.6,7.3-1.9c2.6-0.3,4.8-0.5,6.6-0.5c1.9,0.3,3.7,0.7,5.4,1.1c1.7,0.4,3.2,1.2,4.6,2.5c1.4,1.3,2.7,3.2,3.9,5.8
		s2.2,6.2,3.2,10.9c0.9,4.6,1.7,10.5,2.4,17.7c0.7,7.1,1.3,15.9,1.7,26.3c0.2,1.3-0.3,2.5-1.4,3.5c-1.1,1-2.6,1.8-4.5,2.6
		c-1.9,0.7-4,1.3-6.4,1.7c-2.4,0.4-4.8,0.8-7.3,1c-2.4,0.2-4.7,0.4-7,0.5c-2.2,0.1-4,0.1-5.5,0.1c-1.9,0-3.8-0.3-5.8-1
		c-2-0.6-3.8-1.5-5.4-2.7c-1.6-1.2-3-2.7-4-4.4C118.2,386.4,117.7,384.4,117.7,382.3z M138.3,371.2c-5.3,1.4-9,3.2-11.1,5.2
		c-2.1,2.1-3,4.1-2.7,6c0.3,1.9,1.5,3.7,3.7,5.2c2.2,1.5,4.9,2.5,8,3c3.2,0.5,6.6,0.2,10.3-0.8c3.7-1,7.3-3,10.7-6
		c-1.3-3-2.7-5.4-3.9-7c-1.3-1.7-2.6-2.9-4.1-3.7c-1.5-0.8-3.1-1.3-4.9-1.5C142.6,371.3,140.6,371.2,138.3,371.2z"/>
	<path class="st0" d="M170,372.9c0-2.9,0.5-6,1.4-9.4c1-3.4,2.3-6.6,4.1-9.5c1.8-2.9,4-5.3,6.5-7.3c2.6-1.9,5.5-2.9,8.9-2.9
		c2.5,0,4.8,0.3,6.8,0.8c2,0.5,3.8,1.3,5.5,2.4c1.7,1.1,3.3,2.4,4.9,3.9c1.5,1.5,3.2,3.4,4.8,5.4l-0.8-81.4c2.9-1.1,4.6-1.5,5.3-1.3
		c0.7,0.2,1,1.1,1,2.6c0,0.2,0,0.6-0.1,1c0,0.4-0.1,0.7-0.1,0.8c-0.2,2-0.3,4.8-0.3,8.6c0,3.7,0,8,0,12.9c0,4.9,0.1,10.1,0.2,15.8
		c0.1,5.6,0.2,11.3,0.4,17.1c0.1,5.8,0.2,11.5,0.4,17.1c0.1,5.6,0.2,10.9,0.3,15.8c0.1,4.9,0.1,9.2,0.1,12.9c0,3.7-0.1,6.6-0.3,8.6
		c-1.2,2.4-2.8,4.2-4.8,5.5c-2,1.3-4.2,2.2-6.7,2.8c-2.4,0.6-4.9,0.9-7.4,1c-2.5,0.1-4.9,0.1-7.1,0.1c-7.1,0-12.7-2.1-16.8-6.2
		C172.1,385.8,170,380.1,170,372.9z M176.3,368.6c0,2.7,0.2,5.3,0.7,7.9c0.4,2.6,1.2,4.9,2.3,6.9c1.1,2,2.6,3.6,4.5,4.9
		c1.9,1.2,4.3,1.8,7.3,1.8c1.8,0,4,0,6.5-0.1c2.5,0,5-0.3,7.3-0.9c2.3-0.6,4.3-1.5,5.9-2.7c1.6-1.3,2.4-3.1,2.4-5.5
		c0-2.7-0.4-5.8-1.2-9.4c-0.8-3.6-2-7-3.7-10.2c-1.7-3.2-3.7-5.9-6.2-8.2c-2.5-2.3-5.4-3.4-8.7-3.4c-2.2,0-4.3,0.6-6.4,1.7
		c-2,1.2-3.8,2.6-5.4,4.5c-1.5,1.8-2.8,3.8-3.7,6.1C176.8,364.3,176.3,366.5,176.3,368.6z"/>
	<path class="st0" d="M230.2,316.7c-0.4-0.1-0.9-0.4-1.4-0.9c-0.6-0.5-1.1-1.1-1.5-1.7c-0.5-0.6-0.9-1.3-1.2-1.9
		c-0.3-0.6-0.5-1.1-0.5-1.5c0.3-3.5,1.6-6.1,3.9-7.9c2.3-1.7,4.9-3,7.9-3.6c3-0.7,6-1,9.2-1c3.2,0,5.9,0,8.1,0c3.6,0,7,0.2,10.2,0.6
		c3.1,0.4,5.9,1.2,8.2,2.6c2.3,1.3,4.2,3.2,5.5,5.7c1.3,2.5,2,5.8,2,10c0,2.1-0.1,4-0.2,5.7c-0.2,1.6-0.5,3.2-0.9,4.8
		c-0.4,1.5-1.1,3.2-1.9,4.9c-0.8,1.7-1.9,3.7-3.3,5.9c4.4,1.4,8,2.8,10.8,4c2.8,1.2,5,2.7,6.6,4.4c1.6,1.7,2.7,3.8,3.3,6.3
		s0.9,5.7,0.9,9.6c0,4.7-1,9.1-3,13.2c-2,4.1-4.7,7.7-8,10.8c-3.4,3.1-7.3,5.5-11.7,7.2c-4.4,1.7-9.1,2.6-14,2.6
		c-1,0-2.5-0.2-4.3-0.5c-1.8-0.4-3.8-0.8-5.9-1.4c-2.1-0.6-4.3-1.3-6.5-2.1c-2.2-0.8-4.2-1.6-6-2.6c-1.8-0.9-3.3-1.9-4.4-2.9
		c-1.2-1-1.7-2-1.7-2.9V316.7z M237.6,336.9c0,0.9,0,1.7,0.1,2.6c0.1,0.9,0.3,1.7,0.5,2.4c0.3,0.7,0.7,1.3,1.4,1.7
		c0.6,0.4,1.5,0.7,2.6,0.7c3.6,0,7.3-0.7,11.1-2c3.8-1.3,7.3-3.2,10.4-5.7c3.1-2.4,5.7-5.3,7.7-8.7c2-3.4,3-7.1,3-11.1
		c0-0.5-0.1-1.1-0.3-1.9c-0.2-0.8-0.7-1.6-1.4-2.4c-0.8-0.8-1.9-1.6-3.3-2.4c-1.5-0.8-3.4-1.4-5.9-2c-2.5-0.5-5.6-0.8-9.3-1
		c-3.7-0.1-8.1,0.1-13.4,0.5c-0.2,0.2-0.5,0.9-0.8,2.1c-0.3,1.2-0.5,2.6-0.8,4.3c-0.2,1.7-0.5,3.6-0.7,5.7c-0.2,2.1-0.4,4.1-0.5,6.2
		c-0.2,2.1-0.3,4.1-0.4,6C237.6,334,237.6,335.6,237.6,336.9z M240.8,353.4c0.2,2.6,0,5.3-0.4,8c-0.4,2.7-0.8,5.4-1.1,7.9
		c-0.3,2.5-0.4,4.9-0.4,7.2c0.1,2.3,0.7,4.3,1.9,6.1c1.2,1.8,3.1,3.4,5.7,4.7c2.6,1.3,6.3,2.2,10.9,2.7c3.9,0,7.8-0.7,11.7-2.1
		c3.9-1.4,7.3-3.3,10.3-5.8c3-2.5,5.5-5.5,7.4-8.9c1.9-3.5,2.9-7.2,2.9-11.4c0-2.8-0.5-5.1-1.4-7s-2.2-3.4-3.8-4.6
		c-1.6-1.2-3.5-2.1-5.7-2.6c-2.2-0.6-4.5-0.8-7-0.8c-3,0-5.8,0.1-8.2,0.3c-2.5,0.2-4.9,0.5-7.3,1c-2.4,0.5-4.8,1.2-7.3,2
		C246.7,350.9,243.9,352,240.8,353.4z"/>
	<path class="st0" d="M303.1,382.3c0-6,1.7-10.4,5-13.1c3.3-2.7,7.7-4.1,13.1-4.1c2.1,0,4.1,0,6,0.1c1.9,0.1,3.6,0.3,5.4,0.8
		c1.7,0.4,3.4,1.1,5,2c1.6,0.9,3.3,2.1,5.2,3.7c0-0.4,0-1.1,0.1-2.1c0-1,0.1-2.1,0.1-3.2c0-1.1,0-2.2,0-3.3c0-1,0-1.7,0-2.1
		c-0.2-1.9-0.2-4.4-0.2-7.4c0-3-0.2-6.1-0.7-9.3c-0.5-3.2-1.4-6.2-2.9-9c-1.5-2.9-3.8-5-7-6.4c-2.1,0-4.2,0.4-6.1,1.1
		c-1.9,0.7-3.9,1.5-5.8,2.3c-1.9,0.8-3.8,1.6-5.7,2.3s-3.9,1.1-6.1,1.1c0-2.7,0.8-4.9,2.4-6.6c1.6-1.7,3.6-3,5.9-4
		c2.3-1,4.7-1.6,7.3-1.9c2.6-0.3,4.8-0.5,6.6-0.5c1.9,0.3,3.7,0.7,5.4,1.1c1.7,0.4,3.2,1.2,4.6,2.5c1.4,1.3,2.7,3.2,3.9,5.8
		c1.2,2.6,2.2,6.2,3.2,10.9c0.9,4.6,1.7,10.5,2.4,17.7s1.3,15.9,1.7,26.3c0.2,1.3-0.3,2.5-1.4,3.5c-1.1,1-2.6,1.8-4.5,2.6
		c-1.9,0.7-4,1.3-6.4,1.7c-2.4,0.4-4.8,0.8-7.3,1c-2.4,0.2-4.7,0.4-7,0.5c-2.2,0.1-4,0.1-5.5,0.1c-1.9,0-3.8-0.3-5.8-1
		c-2-0.6-3.8-1.5-5.4-2.7c-1.6-1.2-3-2.7-4-4.4C303.6,386.4,303.1,384.4,303.1,382.3z M323.8,371.2c-5.3,1.4-9,3.2-11.1,5.2
		c-2.1,2.1-3,4.1-2.7,6c0.3,1.9,1.5,3.7,3.7,5.2c2.2,1.5,4.9,2.5,8,3c3.2,0.5,6.6,0.2,10.3-0.8c3.7-1,7.3-3,10.7-6
		c-1.3-3-2.7-5.4-3.9-7c-1.3-1.7-2.6-2.9-4.1-3.7c-1.5-0.8-3.1-1.3-4.9-1.5C328,371.3,326,371.2,323.8,371.2z"/>
	<path class="st0" d="M360.4,395.1c-0.2-1.7-0.4-4.1-0.6-7.4c-0.2-3.3-0.3-6.9-0.5-10.9c-0.2-4-0.3-8.3-0.4-12.7
		c-0.1-4.4-0.2-8.7-0.4-12.7c-0.1-4-0.3-7.6-0.4-10.9c-0.2-3.3-0.4-5.7-0.6-7.4c-0.1-0.1-0.1-0.3-0.2-0.8c0-0.4-0.1-0.9-0.1-1.4
		c0-0.5-0.1-1-0.1-1.4c0-0.4,0-0.7,0-0.8c1.6-1.3,2.9-1.8,4-1.4c1.1,0.4,2,1.4,2.7,2.8c0.7,1.4,1.2,3.2,1.6,5.4
		c0.4,2.1,0.6,4.3,0.8,6.4c0.2,2.1,0.2,4,0.2,5.8c0,1.7,0,3,0,3.7c0.2-1.8,0.5-3.9,0.9-6.4c0.4-2.4,1.1-4.9,1.9-7.4
		c0.8-2.5,1.9-5,3.1-7.5c1.2-2.5,2.7-4.6,4.5-6.5c1.8-1.9,3.8-3.4,6.1-4.5c2.3-1.1,4.9-1.5,7.9-1.2c4.6,0.2,8.4,1.4,11.4,3.7
		c3,2.3,5.4,5.5,7.2,9.3c1.8,3.9,3.1,8.4,3.9,13.5c0.8,5.1,1.3,10.5,1.5,16.2c0.2,5.7,0.3,11.4,0.2,17.3c-0.1,5.9-0.2,11.5-0.2,16.9
		c-0.9,0.2-1.8,0.6-2.7,1.1c-1,0.5-1.7,0.7-2.4,0.7c-0.6,0-1.1-0.5-1.4-1.4c-0.3-0.9-0.2-2.7,0.2-5.3c0.1-1.9,0.3-4.8,0.5-8.8
		c0.3-4,0.4-8.4,0.4-13.3c0-4.9-0.3-9.9-0.8-15.1c-0.5-5.2-1.5-9.9-3-14.2c-1.5-4.2-3.5-7.7-6.1-10.5s-6-4.1-10.2-4.1
		c-4.4,1.8-8,5.2-10.9,10.2c-2.9,5-5.2,10.8-7,17.5c-1.8,6.7-3.1,13.9-3.9,21.7c-0.8,7.8-1.2,15.3-1.3,22.7
		c-0.2-0.1-0.5-0.1-1.1-0.2c-0.6,0-1.2-0.1-1.9-0.1c-0.7,0-1.3-0.1-1.9-0.2C360.9,395.4,360.5,395.3,360.4,395.1z"/>
	<path class="st0" d="M399.8,433.5c0-2.9,0.5-5,1.4-6.5c1-1.5,3.2-2.2,6.7-2.2c-0.2,1.4-0.6,2.9-1.1,4.4c-0.5,1.5-1,2.9-1.3,4.1
		c-0.4,1.2-0.5,2.2-0.5,3c0,0.8,0.5,1,1.2,0.8c3.3,2.2,7,3.8,11.1,4.8c4,1,8,1.4,11.9,1.4c5.9-0.1,11.1-1.3,15.3-3.6
		c4.3-2.3,7.8-5.3,10.6-9c2.8-3.7,5-8,6.5-12.8c1.5-4.8,2.5-9.8,2.9-14.9c0.4-5.2,0.3-10.3-0.4-15.5c-0.6-5.2-1.7-9.9-3.1-14.3
		c-1.8,2.1-3.6,4.2-5.5,6.4c-1.8,2.2-3.8,4.2-5.9,5.9c-2.1,1.8-4.4,3.3-6.8,4.4c-2.4,1.2-5.1,1.7-8,1.7c-3.1,0-5.4-0.5-6.9-1.6
		c-1.5-1.1-2.5-2.5-3-4.4c-0.5-1.9-0.8-4-0.7-6.4c0-2.4,0.1-5,0.1-7.7c0-2.5,0.1-5.4,0.2-8.6c0.2-3.2,0.5-6.4,1.1-9.6
		c0.6-3.2,1.3-6.4,2.4-9.6c1-3.1,2.4-5.9,4.1-8.4c1.7-2.5,3.8-4.4,6.3-5.9c2.5-1.5,5.5-2.2,9-2.2c2.2,0,4.4,0.2,6.5,0.5
		c2.1,0.4,4,1,5.7,2c1.7,1,3.2,2.2,4.5,3.8c1.3,1.6,2.3,3.6,3,6.1c0.4,4.7,0.9,9.8,1.5,15.4c0.6,5.6,1.2,11.4,1.6,17.3
		c0.4,5.9,0.7,11.9,0.7,18c0,6-0.4,11.9-1.2,17.5c-0.8,5.6-2.1,10.9-4,15.8c-1.9,4.9-4.5,9.2-7.8,13c-3.3,3.7-7.5,6.7-12.4,9
		c-5,2.3-10.9,3.5-17.9,3.7c-3,0-6.1-0.2-9.4-0.5c-3.2-0.4-6.2-1.1-9-2.2c-2.7-1.1-5-2.7-6.8-4.8C400.7,439.8,399.8,437,399.8,433.5
		z M430.4,371.6c0,1.1-0.1,2.4-0.2,3.9c-0.1,1.5-0.1,3,0.1,4.5c0.2,1.5,0.7,2.7,1.4,3.8c0.7,1.1,1.9,1.6,3.4,1.7
		c2.5,0,4.9-0.6,7-1.8c2.1-1.2,4.1-2.8,5.8-4.8c1.7-2,3.3-4.2,4.6-6.7s2.4-5.1,3.3-7.7c0.9-2.6,1.6-5.2,2.1-7.7
		c0.5-2.5,0.7-4.7,0.7-6.6c0.3-2.1,0.3-4.1,0.1-6.1c-0.3-2-0.9-3.8-1.8-5.4c-0.9-1.6-2.2-2.9-3.7-3.9c-1.6-1-3.5-1.5-5.7-1.5
		c-2.6,0-4.9,0.7-6.7,2.1c-1.9,1.4-3.4,3.2-4.7,5.5c-1.3,2.3-2.3,4.8-3,7.6c-0.8,2.8-1.3,5.6-1.7,8.4c-0.4,2.8-0.7,5.5-0.8,8.1
		C430.5,367.7,430.4,369.8,430.4,371.6z"/>
	<path class="st0" d="M479.8,358.6c0-3.2,0.7-6.7,2.1-10.5c1.4-3.8,3.3-7.4,5.6-10.8c2.3-3.3,5-6.1,8.1-8.4c3.1-2.3,6.2-3.4,9.5-3.4
		c1.7,0,3.5,0.4,5.3,1.1s3.5,1.7,5.1,2.9c1.6,1.2,3.1,2.6,4.4,4.2c1.3,1.5,2.3,3.2,3.1,4.8c0.8,1.7,1.1,3.3,1.2,4.9
		c0,1.6-0.4,3-1.4,4.2l-33.4,6.2c-0.4,0.1-0.8,0.6-1.1,1.5c-0.3,0.9-0.6,2.1-0.8,3.4c-0.2,1.4-0.4,2.9-0.6,4.5
		c-0.2,1.6-0.3,3.2-0.4,4.8c-0.1,1.5-0.1,2.9-0.2,4.2c0,1.2-0.1,2.1-0.1,2.7c0,3,0.7,5.4,2.1,7.3c1.4,1.8,3.3,3.2,5.5,4.2
		c2.2,1,4.7,1.6,7.6,1.9c2.8,0.3,5.6,0.5,8.3,0.5s5.3-0.1,7.8-0.3c2.5-0.2,4.5-0.3,6.1-0.3c0,0.5-0.2,1-0.5,1.5
		c-0.3,0.5-0.7,1-1.1,1.5c-0.4,0.5-0.9,0.9-1.2,1.2c-0.4,0.4-0.7,0.6-0.8,0.7c-0.8,0.2-2.1,0.5-3.9,0.9c-1.8,0.4-3.6,0.7-5.6,1
		c-1.9,0.3-3.8,0.6-5.5,0.8c-1.7,0.2-2.8,0.4-3.4,0.4c-3.3,0.6-6.2,0.6-8.6-0.2c-2.4-0.8-4.5-2-6.2-3.8c-1.7-1.8-3.1-4-4.2-6.5
		c-1.1-2.6-1.9-5.4-2.4-8.3c-0.5-3-0.8-6-0.8-9.2C479.3,364.7,479.4,361.6,479.8,358.6z M502.7,331.6c-1-0.1-2.2,0.4-3.7,1.4
		c-1.5,1-2.9,2.3-4.3,3.9c-1.3,1.5-2.5,3.2-3.3,4.9c-0.9,1.7-1.2,3.2-1,4.4c2.8,0.4,5.7,0.4,8.6-0.1c3-0.4,5.7-1.1,8.1-2
		c2.4-0.9,4.4-2,6-3.2c1.6-1.2,2.4-2.5,2.3-3.7c0-1.2-1-2.4-3-3.4C510.6,332.8,507.3,332.1,502.7,331.6z"/>
	<path class="st0" d="M531,334.1c1.3-0.6,2.5-0.7,3.4-0.4c1,0.3,1.7,0.9,2.4,1.7c0.6,0.8,1.1,1.8,1.4,2.9c0.3,1.1,0.6,2.2,0.7,3.3
		c1.4-2.3,3.4-4.2,6-5.6c2.6-1.4,5.4-2.4,8.3-2.9c3-0.5,5.9-0.6,8.9-0.4c2.9,0.3,5.4,0.9,7.5,2c2.1,1,3.5,2.4,4.3,4.1
		c0.8,1.7,0.6,3.7-0.7,6.1c-2.7-1.6-5.6-2.9-8.6-3.8c-3-1-5.9-1.3-8.8-1c-2.9,0.3-5.5,1.4-8,3.2c-2.5,1.8-4.5,4.8-6,8.8
		c-1.5,4-2.5,9.4-2.9,16c-0.4,6.6,0,14.8,1.3,24.6h-6.1c-0.2-3.5-0.5-6.6-0.7-9.5c-0.2-2.8-0.4-6-0.7-9.5c-0.2-3.5-0.5-7.1-0.7-10.6
		c-0.2-3.6-0.4-7-0.6-10.3c-0.2-3.3-0.4-6.2-0.5-8.7c0-0.3,0-1-0.1-1.9c0-1-0.1-2-0.1-3.1c0-1.1-0.1-2.1-0.1-3.1
		C531,335.2,531,334.5,531,334.1z"/>
	<path class="st0" d="M589,383.1c1.9,0,3.7,0.4,5.3,1.1c1.6,0.7,3.3,1.5,4.9,2.4c1.6,0.9,3.3,1.7,4.9,2.4c1.6,0.7,3.4,1.1,5.3,1.1
		c2.2,0,4.5-0.4,6.9-1.2c2.4-0.8,4.6-1.9,6.5-3.4c2-1.5,3.6-3.2,4.9-5.2c1.3-2,2-4.3,2-6.7c0.1-0.7,0.1-1.6,0.1-2.7
		c0-1.1-0.4-2.2-1.1-3.3c-0.7-1.1-1.7-2.2-3.2-3.2c-1.5-1-3.6-1.8-6.4-2.3c-2.8-0.6-6.3-0.9-10.5-0.9c-4.2,0-9.5,0.3-15.8,1.1
		c-1.6,0-3.1-0.4-4.6-1.3c-1.5-0.9-2.8-2-4-3.3c-1.2-1.3-2.1-2.7-2.9-4.3c-0.7-1.5-1.1-3-1.1-4.5c0-4,0.9-7.4,2.6-10
		c1.7-2.6,4-4.7,6.7-6.2c2.7-1.5,5.8-2.6,9.2-3.3c3.4-0.6,6.8-1,10.2-1c1.7,0,3.5,0.1,5.5,0.2c2,0.2,3.9,0.6,5.7,1.3
		s3.3,1.8,4.5,3.3c1.2,1.5,1.8,3.5,1.8,6.1c-0.2,1.8-0.5,2.9-0.9,3.3c-0.4,0.4-0.9,0.3-1.5-0.3c-0.7-0.6-1.5-1.4-2.4-2.4
		c-1-1.1-2.1-2.1-3.5-3.1c-1.3-1-2.9-1.7-4.8-2.3c-1.8-0.5-3.9-0.5-6.2-0.1c-2.5,0-4.9,0.2-7.4,0.7c-2.5,0.5-4.7,1.3-6.6,2.5
		c-1.9,1.2-3.5,2.8-4.8,4.8c-1.2,2-1.8,4.5-1.8,7.6c0,1.6,0.7,2.7,2.2,3.2c1.5,0.6,3.4,0.9,5.8,0.9c2.4,0,5.1,0,8.1-0.2
		c3-0.2,6.1-0.3,9.2-0.3c3.1,0,6.2,0.3,9.2,0.8c3,0.5,5.6,1.5,7.9,2.9c2.3,1.4,4,3.5,5.3,6.1c1.3,2.6,1.7,6.1,1.4,10.3
		c0,3-0.9,5.9-2.6,8.7c-1.7,2.8-4,5.2-6.7,7.3c-2.7,2.1-5.7,3.7-8.9,4.8c-3.3,1.2-6.4,1.6-9.5,1.2c-1.3-0.1-3-0.4-5.1-1
		c-2.1-0.6-4.2-1.4-6.3-2.5c-2.1-1.1-3.8-2.4-5.4-3.9C589.7,387,589,385.2,589,383.1z"/>
</g>
<g>
	<g>
		<path id="line1" class="st0 lines" d="M389.6,104.9c1.4,0.1,3.9,3.5,4.7,4.5c1.6,1.9,2.9,4.2,3.5,6.6c1.4,4.9,0.5,9.7-1.4,14.4
			c-1.6,4.1,5,5.8,6.6,1.8c2.7-6.9,3.3-14.3,0.2-21.2c-2.4-5.4-7.6-12.4-13.7-13C385.2,97.6,385.2,104.4,389.6,104.9L389.6,104.9z"
			/>
	</g>
</g>
<g>
	<g>
		<path id="line2" class="st0 lines" d="M394.7,85.1c11.2,0.5,18.2,14.5,21.1,23.9c3.7,12.4,1.7,24.3-1.5,36.5c-1.1,4.2,5.5,6.1,6.6,1.8
			c4-15.3,5.7-30.3-0.3-45.3c-4.5-11.1-12.8-23.1-25.9-23.7C390.2,78,390.2,84.9,394.7,85.1L394.7,85.1z"/>
	</g>
</g>
<g>
	<g>
		<path id="line3" class="st0 lines" d="M392.9,62c10,3.5,19.2,8.7,27.2,15.6c8,6.8,12.7,14.2,15.7,24.2c6,19.7,4.5,41.2-3.8,60c-1.7,4,4.1,7.6,6,3.4
			c9.3-21.1,11-45.1,3.9-67.2c-7-21.6-26.3-35.1-47.2-42.6C390.5,53.9,388.7,60.5,392.9,62L392.9,62z"/>
	</g>
</g>
</svg>
