<?xml version="1.0"?>
<svg xmlns="http://www.w3.org/2000/svg" xmlns:xlink="http://www.w3.org/1999/xlink" version="1.1" id="Layer_1" x="0px" y="0px" viewBox="0 0 512 512" style="enable-background:new 0 0 512 512;" xml:space="preserve" width="512px" height="512px" class=""><g><g>
	<g>
		<path d="M117.333,42.667C60.821,42.667,0,56.021,0,85.333C0,114.645,60.821,128,117.333,128    c56.512,0,117.333-13.355,117.333-42.667C234.667,56.021,173.845,42.667,117.333,42.667z M117.333,106.667    c-62.421,0-94.4-15.573-96.021-21.184C22.933,79.573,54.912,64,117.333,64s94.4,15.573,96.021,21.184    C211.733,91.093,179.755,106.667,117.333,106.667z" data-original="#000000" class="active-path" data-old_color="#F9F9EF" fill="#FCFCF8"/>
	</g>
</g><g>
	<g>
		<path d="M224,74.667c-5.888,0-10.667,4.779-10.667,10.667l0.021,42.517c-1.621,5.909-33.6,21.483-96.021,21.483    s-94.4-15.573-96-21.333V85.333c0-5.888-4.779-10.667-10.667-10.667S0,79.445,0,85.333V128c0,29.312,60.821,42.667,117.333,42.667    c56.512,0,117.333-13.355,117.333-42.667V85.333C234.667,79.445,229.888,74.667,224,74.667z" data-original="#000000" class="active-path" data-old_color="#F9F9EF" fill="#FCFCF8"/>
	</g>
</g><g>
	<g>
		<path d="M224,117.333c-5.888,0-10.667,4.779-10.667,10.667l0.021,42.517c-1.621,5.909-33.6,21.483-96.021,21.483    s-94.4-15.573-96-21.333V128c0-5.888-4.779-10.667-10.667-10.667S0,122.112,0,128v42.667c0,29.312,60.821,42.667,117.333,42.667    c56.512,0,117.333-13.355,117.333-42.667V128C234.667,122.112,229.888,117.333,224,117.333z" data-original="#000000" class="active-path" data-old_color="#F9F9EF" fill="#FCFCF8"/>
	</g>
</g><g>
	<g>
		<path d="M394.667,256c-56.512,0-117.333,13.355-117.333,42.667c0,29.312,60.821,42.667,117.333,42.667S512,327.979,512,298.667    C512,269.355,451.179,256,394.667,256z M394.667,320c-62.421,0-94.4-15.573-96.021-21.184c1.621-5.909,33.6-21.483,96.021-21.483    s94.4,15.573,96.021,21.184C489.067,304.427,457.088,320,394.667,320z" data-original="#000000" class="active-path" data-old_color="#F9F9EF" fill="#FCFCF8"/>
	</g>
</g><g>
	<g>
		<path d="M501.333,288c-5.888,0-10.667,4.779-10.667,10.667l0.021,42.517c-1.621,5.909-33.6,21.483-96.021,21.483    s-94.4-15.573-96-21.333v-42.667c0-5.888-4.779-10.667-10.667-10.667s-10.667,4.779-10.667,10.667v42.667    c0,29.312,60.821,42.667,117.333,42.667S512,370.645,512,341.333v-42.667C512,292.779,507.221,288,501.333,288z" data-original="#000000" class="active-path" data-old_color="#F9F9EF" fill="#FCFCF8"/>
	</g>
</g><g>
	<g>
		<path d="M501.333,330.667c-5.888,0-10.667,4.779-10.667,10.667l0.021,42.517c-1.621,5.909-33.6,21.483-96.021,21.483    s-94.4-15.573-96-21.333v-42.667c0-5.888-4.779-10.667-10.667-10.667s-10.667,4.779-10.667,10.667V384    c0,29.312,60.821,42.667,117.333,42.667S512,413.312,512,384v-42.667C512,335.445,507.221,330.667,501.333,330.667z" data-original="#000000" class="active-path" data-old_color="#F9F9EF" fill="#FCFCF8"/>
	</g>
</g><g>
	<g>
		<path d="M501.333,373.333c-5.888,0-10.667,4.779-10.667,10.667l0.021,42.517c-1.621,5.909-33.6,21.483-96.021,21.483    s-94.4-15.573-96-21.333V384c0-5.888-4.779-10.667-10.667-10.667s-10.667,4.779-10.667,10.667v42.667    c0,29.312,60.821,42.667,117.333,42.667S512,455.979,512,426.667V384C512,378.112,507.221,373.333,501.333,373.333z" data-original="#000000" class="active-path" data-old_color="#F9F9EF" fill="#FCFCF8"/>
	</g>
</g><g>
	<g>
		<path d="M224,160c-5.888,0-10.667,4.779-10.667,10.667l0.021,42.517c-1.621,5.909-33.6,21.483-96.021,21.483    s-94.4-15.573-96-21.333v-42.667c0-5.888-4.779-10.667-10.667-10.667S0,164.779,0,170.667v42.667    C0,242.645,60.821,256,117.333,256c56.512,0,117.333-13.355,117.333-42.667v-42.667C234.667,164.779,229.888,160,224,160z" data-original="#000000" class="active-path" data-old_color="#F9F9EF" fill="#FCFCF8"/>
	</g>
</g><g>
	<g>
		<path d="M224,202.667c-5.888,0-10.667,4.779-10.667,10.667l0.021,42.517c-1.621,5.909-33.6,21.483-96.021,21.483    s-94.4-15.573-96-21.333v-42.667c0-5.888-4.779-10.667-10.667-10.667S0,207.445,0,213.333V256    c0,29.312,60.821,42.667,117.333,42.667c56.512,0,117.333-13.355,117.333-42.667v-42.667    C234.667,207.445,229.888,202.667,224,202.667z" data-original="#000000" class="active-path" data-old_color="#F9F9EF" fill="#FCFCF8"/>
	</g>
</g><g>
	<g>
		<path d="M224,245.333c-5.888,0-10.667,4.779-10.667,10.667l0.021,42.517c-1.621,5.909-33.6,21.483-96.021,21.483    s-94.4-15.573-96-21.333V256c0-5.888-4.779-10.667-10.667-10.667S0,250.112,0,256v42.667c0,29.312,60.821,42.667,117.333,42.667    c56.512,0,117.333-13.355,117.333-42.667V256C234.667,250.112,229.888,245.333,224,245.333z" data-original="#000000" class="active-path" data-old_color="#F9F9EF" fill="#FCFCF8"/>
	</g>
</g><g>
	<g>
		<path d="M224,288c-5.888,0-10.667,4.779-10.667,10.667l0.021,42.517c-1.621,5.909-33.6,21.483-96.021,21.483    s-94.4-15.573-96-21.333v-42.667c0-5.888-4.779-10.667-10.667-10.667S0,292.779,0,298.667v42.667    C0,370.645,60.821,384,117.333,384c56.512,0,117.333-13.355,117.333-42.667v-42.667C234.667,292.779,229.888,288,224,288z" data-original="#000000" class="active-path" data-old_color="#F9F9EF" fill="#FCFCF8"/>
	</g>
</g><g>
	<g>
		<path d="M224,330.667c-5.888,0-10.667,4.779-10.667,10.667l0.021,42.517c-1.621,5.909-33.6,21.483-96.021,21.483    s-94.4-15.573-96-21.333v-42.667c0-5.888-4.779-10.667-10.667-10.667S0,335.445,0,341.333V384    c0,29.312,60.821,42.667,117.333,42.667c56.512,0,117.333-13.355,117.333-42.667v-42.667    C234.667,335.445,229.888,330.667,224,330.667z" data-original="#000000" class="active-path" data-old_color="#F9F9EF" fill="#FCFCF8"/>
	</g>
</g></g> </svg>
